<?xml version="1.0" encoding="UTF-8" standalone="no"?> 
<svg xmlns="http://www.w3.org/2000/svg" viewBox="0 0 64 64">
  <g id="Layer_14" data-name="Layer 14">
    <path fill="white" d="M55.89,6.06H8.11A5.11,5.11,0,0,0,3,11.17v5.5a5.11,5.11,0,0,0,5.11,5.1H17V56.94a1,1,0,0,0,1,1H46a1,1,0,0,0,1-1V21.77h8.89A5.11,5.11,0,0,0,61,16.67v-5.5A5.11,5.11,0,0,0,55.89,6.06ZM19,14.91h3V46.77a1,1,0,0,0,1,1h2a2.17,2.17,0,0,1,2.17,2.17v2a1,1,0,0,0,1,1h7.66a1,1,0,0,0,1-1v-2A2.17,2.17,0,0,1,39,47.77h2a1,1,0,0,0,1-1V14.91h3v41H19Zm6,30.86H24V34.92a10,10,0,0,0,16,0V45.77H39a4.18,4.18,0,0,0-4.17,4.17v1H29.17v-1A4.18,4.18,0,0,0,25,45.77ZM32,37a8,8,0,1,1,8-8A8,8,0,0,1,32,37Zm0-18a10,10,0,0,0-8,4V14.91H40V23A10,10,0,0,0,32,19Zm27-2.28a3.12,3.12,0,0,1-3.11,3.1H47V14.91h5a1,1,0,0,0,0-2H12a1,1,0,0,0,0,2h5v4.86H8.11A3.12,3.12,0,0,1,5,16.67v-5.5A3.11,3.11,0,0,1,8.11,8.06H55.89A3.11,3.11,0,0,1,59,11.17Z"/>
    <path fill="white" d="M36,26.11a2.88,2.88,0,0,0-2.06-.88,2.93,2.93,0,0,0-2.89,3V29.7a.93.93,0,0,1-.89,1,.89.89,0,0,1-.63-.27,1,1,0,0,1-.27-.69V26.84a1,1,0,1,0-2,0V28H26.05a1,1,0,0,0,0,2h1.19a2.93,2.93,0,0,0,.81,1.83,2.88,2.88,0,0,0,2.06.88,2.93,2.93,0,0,0,2.89-3V28.19a.93.93,0,0,1,.89-1,.89.89,0,0,1,.63.27,1,1,0,0,1,.27.69v2.87a1,1,0,0,0,2,0V30H38a1,1,0,0,0,0-2H36.76A3,3,0,0,0,36,26.11Z"/>
  </g>
</svg>
