<?xml version="1.0" encoding="utf-8"?>
<!-- Generator: Adobe Illustrator 24.3.0, SVG Export Plug-In . SVG Version: 6.00 Build 0)  -->
<svg version="1.1" id="Layer_1" xmlns="http://www.w3.org/2000/svg" xmlns:xlink="http://www.w3.org/1999/xlink" x="0px" y="0px"
	 viewBox="0 0 512 512" style="enable-background:new 0 0 512 512;" xml:space="preserve">
<style type="text/css">
	.st0{fill:url(#XMLID_3_);}
	.st1{fill:#FFFFFF;}
</style>
<g id="XMLID_1_">
	
		<radialGradient id="XMLID_3_" cx="91.8665" cy="88.3621" r="477.6592" gradientTransform="matrix(1 0 0 1 0 2)" gradientUnits="userSpaceOnUse">
		<stop  offset="0" style="stop-color:#9DD5F6"/>
		<stop  offset="0.0711" style="stop-color:#98D3F5"/>
		<stop  offset="0.1575" style="stop-color:#89CEF3"/>
		<stop  offset="0.2516" style="stop-color:#70C6EF"/>
		<stop  offset="0.3514" style="stop-color:#4EBBEA"/>
		<stop  offset="0.4546" style="stop-color:#23ADE3"/>
		<stop  offset="0.5" style="stop-color:#0DA6E0"/>
		<stop  offset="1" style="stop-color:#2E77BC"/>
	</radialGradient>
	<path id="XMLID_20_" class="st0" d="M511.03,1.17H2.05v510.85h508.98V343.45c1.98-2.92,3.02-6.67,3.02-11.26
		c0-5.21-1.04-8.44-3.02-11.16"/>
	<path class="st1" d="M47.92,222.2l-9.8-23.87l-9.7,23.87 M263.63,212.71c-1.98,1.15-4.27,1.25-7.09,1.25h-17.31v-13.34h17.62
		c2.5,0,5.11,0.1,6.78,1.04c1.88,0.83,3.02,2.71,3.02,5.32C266.65,209.58,265.5,211.77,263.63,212.71z M387.69,222.2l-9.9-23.87
		l-9.8,23.87H387.69z M156.56,248.05h-14.7l-0.1-46.92l-20.75,46.92H108.5l-20.85-46.92v46.92H58.56l-5.53-13.34H23.32l-5.53,13.34
		H2.26l25.54-59.84h21.27l24.4,56.61v-56.61h23.35l18.77,40.56l17.2-40.56h23.77V248.05L156.56,248.05z M214.94,248.05h-47.75
		v-59.84h47.75v12.51h-33.47v10.74h32.74v12.2h-32.63v11.99h33.47v12.41H214.94z M282.39,204.26c0,9.59-6.36,14.49-10.11,15.95
		c3.13,1.15,5.84,3.34,7.09,5c1.98,3.02,2.4,5.63,2.4,10.95v11.78h-14.39l-0.1-7.51c0-3.65,0.31-8.76-2.29-11.68
		c-2.09-2.09-5.32-2.61-10.43-2.61h-15.33v21.79h-14.28v-59.74h32.94c7.3,0,12.72,0.21,17.31,2.81
		C279.68,193.73,282.39,197.59,282.39,204.26z M305.23,248.05h-14.6v-59.84h14.6V248.05z M474.64,248.05h-20.23l-27.11-44.93v44.93
		h-29.09l-5.53-13.34h-29.71l-5.42,13.34h-16.79c-6.99,0-15.74-1.56-20.75-6.57c-5-5.11-7.61-11.99-7.61-22.83
		c0-8.86,1.56-16.99,7.71-23.35c4.59-4.8,11.89-6.99,21.69-6.99h13.87v12.82h-13.55c-5.21,0-8.13,0.73-11.05,3.54
		c-2.4,2.5-4.07,7.3-4.07,13.55c0,6.46,1.25,11.05,3.96,14.07c2.19,2.4,6.26,3.13,10.01,3.13h6.46l20.12-47.02h21.48l24.19,56.61
		v-56.82h21.79l25.13,41.7v-41.7h14.7L474.64,248.05L474.64,248.05z M2.05,259.73h24.4l5.53-13.34h12.3l5.53,13.34h48.06v-10.11
		l4.27,10.22h24.92l4.27-10.32v10.32H250.8l-0.1-21.79h2.29c1.67,0.1,2.09,0.21,2.09,2.92v18.97h61.82v-5.11
		c5,2.71,12.72,5.11,22.94,5.11h25.96l5.53-13.34h12.3l5.42,13.34h50.15v-12.61l7.61,12.61h40.56v-83.51h-39.72v9.9l-5.53-9.9
		h-40.76v9.9l-5.11-9.9h-55.05c-9.17,0-17.31,1.25-23.87,4.9v-4.9h-38.05v4.9c-4.17-3.65-9.8-4.9-16.16-4.9H124.13l-9.28,21.58
		l-9.59-21.58H61.48v9.9l-4.8-9.9H19.36L2.05,215.94V259.73L2.05,259.73z"/>
	<path class="st1" d="M511.03,303.93h-26.06c-2.61,0-4.38,0.1-5.84,1.04s-2.09,2.4-2.09,4.27c0,2.29,1.25,3.75,3.13,4.48
		c1.46,0.52,3.13,0.73,5.53,0.73l7.71,0.21c7.82,0.21,13.03,1.56,16.26,4.8c0.63,0.42,0.94,0.94,1.36,1.46 M511.03,343.45
		c-3.44,5.11-10.22,7.61-19.39,7.61h-27.63v-12.82h27.52c2.71,0,4.69-0.31,5.84-1.46c1.04-0.94,1.67-2.29,1.67-3.86
		c0-1.77-0.73-3.13-1.77-3.96c-1.04-0.94-2.5-1.36-5-1.36c-13.45-0.42-30.23,0.42-30.23-18.56c0-8.65,5.53-17.83,20.54-17.83h28.46
		v-11.89h-26.48c-8.03,0-13.76,1.88-17.93,4.9v-4.9h-39.2c-6.26,0-13.66,1.56-17.1,4.9v-4.9h-69.96v4.9
		c-5.53-4.07-14.91-4.9-19.29-4.9h-46.08v4.9c-4.38-4.27-14.18-4.9-20.12-4.9h-51.61l-11.78,12.82l-11.05-12.82h-77.15v83.51h75.69
		l12.2-13.03l11.47,13.03h46.6v-19.6h4.59c6.15,0.1,13.45-0.1,19.91-2.92v22.52h38.47v-21.79h1.88c2.4,0,2.61,0.1,2.61,2.5v19.29
		h116.87c7.4,0,15.22-1.88,19.5-5.32v5.32h37.12c7.71,0,15.22-1.04,20.96-3.86v-15.53H511.03z M454,319.47
		c2.81,2.92,4.27,6.57,4.27,12.72c0,12.93-8.03,18.87-22.52,18.87h-27.84v-12.82h27.73c2.71,0,4.59-0.31,5.84-1.46
		c0.94-0.94,1.67-2.29,1.67-3.86c0-1.77-0.73-3.13-1.77-3.96c-1.04-0.94-2.61-1.36-5.11-1.36c-13.34-0.42-30.13,0.42-30.13-18.56
		c0-8.65,5.42-17.83,20.43-17.83h28.67v12.72h-26.27c-2.61,0-4.27,0.1-5.73,1.04c-1.56,0.94-2.19,2.4-2.19,4.27
		c0,2.29,1.36,3.75,3.13,4.48c1.46,0.52,3.13,0.73,5.53,0.73l7.71,0.21C445.45,314.88,450.77,316.23,454,319.47z M324.93,315.82
		c-1.88,1.15-4.27,1.25-7.09,1.25h-17.41v-13.45h17.62c2.5,0,5.11,0.1,6.78,1.04c1.88,0.94,2.92,2.81,2.92,5.42
		C327.85,312.59,326.7,314.67,324.93,315.82z M333.58,323.22c3.23,1.15,5.84,3.23,6.99,5c1.98,2.92,2.29,5.63,2.4,10.95v11.89
		h-14.39v-7.51c0-3.65,0.31-8.97-2.29-11.68c-2.09-2.19-5.32-2.61-10.53-2.61h-15.33v21.89h-14.39v-59.84h33.05
		c7.19,0,12.51,0.31,17.2,2.81c4.48,2.71,7.4,6.46,7.4,13.34C343.7,316.86,337.34,321.76,333.58,323.22z M351.62,291.21h47.75v12.41
		H365.9v10.84h32.74v12.2H365.9v11.89l33.47,0.1v12.41h-47.75V291.21z M255.08,318.84h-18.45v-15.22h18.66
		c5.21,0,8.76,2.09,8.76,7.3S260.6,318.84,255.08,318.84z M222.34,345.63l-22-24.4l22-23.56V345.63z M165.63,338.55h-35.13v-11.89
		h31.38v-12.2h-31.38v-10.84h35.86L182,321.03L165.63,338.55z M279.37,310.92c0,16.68-12.41,20.02-24.92,20.02h-17.83v20.12h-27.84
		l-17.62-19.81l-18.35,19.81h-56.61v-59.84h57.55l17.62,19.6l18.24-19.6h45.66C266.65,291.21,279.37,294.34,279.37,310.92z"/>
</g>
</svg>
