<?xml version="1.0" encoding="utf-8"?>
<!-- Generator: Adobe Illustrator 25.0.1, SVG Export Plug-In . SVG Version: 6.00 Build 0)  -->
<svg version="1.1" id="katman_1" xmlns="http://www.w3.org/2000/svg" xmlns:xlink="http://www.w3.org/1999/xlink" x="0px" y="0px"
	 viewBox="0 0 560 400" style="enable-background:new 0 0 560 400;" xml:space="preserve">
<style type="text/css">
	.st0{fill:#161413;}
	.st1{fill:#E52935;}
</style>
<g transform="matrix(.860956 0 0 .860956 107.852 70.2109)">
	<path class="st0" d="M104.64,117.37l2.6,3.84c-2.72,2.97-6.56,4.71-11.4,5.45l-1.36,1.73l-0.25,2.85l3.34,11.77l5.7,10.65
		c1.61,2.6,10.28,9.79,26.01,21.8l6.81,7.31l4.95,0.5c3.84-3.22,7.18-5.08,10.4-5.45l0.62-15.23l-3.47-22.79l1.11-39.26l3.47-4.83
		c-0.99,6.69-0.99,11.77-0.25,14.86v72.71l3.1,4.83l1.86-34.68c0.99-18.46,1.11-30.35,0.74-35.55l-0.74-8.67l1.11-6.44l5.2-6.81
		l-1.98,19.45l-3.22,78.03l-2.11,15.73h6.69l2.97-47.07c0.87-25.64,1.73-42.24,2.6-49.54c0.37-4.34,1.73-10.65,3.72-18.83l1.24-1.73
		l0.62,1.73l0.12,4.95l-3.34,82.37l-1.86,12.88l0.5,15.23h6.81l8.92-110.98l5.57-2.23l-7.43,113.21h10.03l7.18-110.98l2.97-3.84
		l3.1,3.22l-5.2,111.6h8.42l1.86-54.25l6.07,2.6l-1.36,51.65h8.67v-35.3l2.35-15.61c1.24,0,2.6-0.87,3.84-2.85l-3.1,53.76h5.57
		l5.82-89.43c0.25-9.04-0.99-17.96-3.84-26.51l4.58,3.96l3.22,25.39l-6.56,86.58h5.08l0.25-3.59l7.43-1.98
		c4.58-3.96,22.67-14.74,54.62-32.45l16.35-16.6l-1.36-6.07l-12.14-17.34l-14.99-12.88l-3.96-4.95l-18.33-13.01l-23.29-10.53
		c-3.96-1.98-9.54-3.84-16.72-5.95l-1.86-1.24l-7.8-2.85c-5.82-1.61-5.2-3.1,1.73-4.95c3.72-1.24,5.57-2.6,5.82-4.34
		c0-1.36-0.62-2.85-1.73-4.21l0.25-2.23l2.48-4.21c-0.74-2.48-0.99-4.83-0.99-7.18l3.22-1.73l0.99-2.11l-0.74-1.98l-4.83-4.09
		c0.12-2.6-0.12-5.7-1.24-8.92l-1.49-4.95c-0.25-1.24,0.87-4.21,3.22-9.04l-2.6-7.68l-1.98-1.86l-7.18,0.25
		c-2.23-1.98-5.95-3.1-11.4-3.59l-10.03,2.11l-8.55,0.74l-4.83,3.96l-6.44,3.47c-2.23,4.58-4.34,7.18-6.81,7.93l-3.22,8.92
		l6.81,24.9l6.07,8.67l3.1,2.85v5.33h-1.49l-7.68,6.07l-22.79,3.22l-27.87,14.24l-40.38,26.26l-3.59,6.07l-0.25,10.16l7.18,14
		l12.14,12.39c15.98,9.91,31.96,19.57,47.93,29.11l3.59,4.09l-2.6,7.31h8.92c1.36-3.34,1.98-6.81,1.86-10.4
		c0-2.72-0.74-5.33-2.35-7.8h-10.9l-6.81-3.22c-3.96-3.1-8.92-6.19-14.49-9.41c-5.33-3.1-10.65-6.81-16.23-10.78
		c-9.91-7.8-16.85-15.23-20.68-22.3l-1.36-5.45l0.25-6.19l1.73-3.34l6.81-6.56l11.4-6.44L104.64,117.37z M116.28,121.58v-2.23
		l28.74-17.34l0.12,2.48l-23.91,17.59l-2.85,0.99L116.28,121.58z M112.57,111.67l-0.62-1.98l34.68-18.58l-1.73,3.22l-23.16,13.5
		L112.57,111.67z M145.39,117.99l-0.99,1.86l-18.95,11.15l-0.99,1.61l-0.99-1.61l0.62-1.86l16.72-13.13l4.34-0.37L145.39,117.99z
		 M142.66,129.14c0.37,5.7,0.87,11.15,1.61,16.47l3.59,28.74l-2.72,0.74l-3.72,0.25c-5.57-4.71-10.78-9.91-15.61-15.73
		c-3.96-5.2-7.56-10.65-10.53-16.6l0.87-1.49c4.83-3.22,9.91-6.07,14.99-8.92c3.34-1.61,6.94-3.22,10.65-4.58L142.66,129.14z
		 M277.05,122.57l-0.25,1.86l-3.59-0.74l-19.32-12.01h-3.1l-3.22-2.6l-0.99-3.96c3.22,0.99,6.32,2.35,9.17,3.96L277.05,122.57z
		 M282.01,116.87l-4.95-1.61l-20.68-14.37c-6.07-2.6-9.29-3.84-9.91-3.84l-0.37-2.97l6.56,0.87l30.97,20.93L282.01,116.87z
		 M220.33,35.74l-0.99,1.36l-8.55,3.84l1.98,3.34l7.8,1.36l4.83-0.99l3.59,3.1l-3.1,2.23l-2.48,0.99l2.48,2.72v1.24l-3.96,0.87
		l-2.6,2.72l0.25,2.35l3.59-0.87l1.49-0.12l0.62,0.99l-2.6,1.24c-0.37,0-0.99,0.87-1.61,2.85h1.11l1.49,2.85
		c0.25,0.87-0.74,1.49-2.35,1.86l-11.4-2.11l-12.14,0.25l-4.71,2.85v1.98l6.19,5.08l-0.5,8.55c0,1.24-0.99,0.99-3.22-0.37
		l-11.89-7.43l0.25-7.18l1.49-0.25l3.22-14.12l-4.21-5.45l-0.5-6.44l2.11-2.35l4.34-0.74l5.33,4.58h2.85l1.24-5.45l11.4-7.18h7.8
		L220.33,35.74z M194.31,100.15c0-0.87,0.5-1.36,1.49-1.36c0.87,0,1.36,0.5,1.36,1.36c0,1.11-0.37,1.49-1.36,1.49
		C194.81,101.64,194.31,101.27,194.31,100.15z M196.42,117.74c0,1.11-0.5,1.61-1.49,1.61c-0.99,0-1.61-0.5-1.61-1.61
		c0-0.99,0.62-1.49,1.61-1.49C195.92,116.25,196.42,116.75,196.42,117.74z M216.11,97.68l0.99-0.25l3.96,8.3l0.25,5.7l-0.74,12.88
		h-6.56L216.11,97.68z M228.87,101.64l4.34-2.85l-0.74,25.64h-4.21L228.87,101.64z M270.24,130.25l1.49,2.72l-2.6,1.86L256,128.15
		L249.06,117L270.24,130.25z M254.14,143.01l0.62-6.44c2.6,0.74,4.83,1.61,6.94,2.85c7.18,4.21,14,8.55,20.56,13.38
		c-7.56,7.8-15.36,15.11-23.91,21.68c-4.21,3.47-8.79,6.32-13.87,8.42l4.34-12.88L254.14,143.01z M248.19,136.2l-0.12-9.29
		c0-1.61,0.62-1.98,1.86-0.87c0.5,0.87,0.99,2.72,1.11,5.82l-1.86,17.22l-2.85,12.01L248.19,136.2z M233.83,131.61v1.49h-19.69
		v-1.49H233.83z M233.83,127.28v1.86h-19.69v-1.86H233.83l10.65,67.5l0.12-8.92l9.66-1.11l34.56-31.46l-11.4-11.64l7.43-10.65
		l2.97,0.25l14.62,18.95l-0.87,3.84c-7.68,7.18-15.73,13.87-24.52,19.94c-10.65,7.56-21.3,14.62-32.58,20.81L233.83,127.28z
		 M190.97,44.29l-4.58-0.12l-1.11,2.23l0.74,1.73l1.73-0.25l0.99,1.86l1.49,1.73l1.49-0.12l0.74-3.59L190.97,44.29z"/>
	<path class="st1" d="M121.48,231.07h-17.46v15.85h-7.18v15.73h7.18v22.67c0,2.23,0.87,4.34,2.6,6.07c1.98,1.61,3.96,2.48,6.32,2.48
		h18.7v-15.61h-6.07c-2.6,0-3.84-1.49-3.84-4.21v-11.4h6.69v-15.73h-6.69L121.48,231.07z M183.91,226.86h-17.46v58.59
		c0,5.7,2.72,8.42,8.55,8.42H201v-15.61H188c-2.6,0-4.09-1.49-4.09-4.21L183.91,226.86z M417.26,245.81c-5.82,0-8.67,2.72-8.67,8.55
		v39.51h17.46v-28.49c0-2.6,1.36-3.84,3.96-3.84h9.17v-15.73H417.26z M-32.6,226.86c-2.48,0-4.46,0.87-6.44,2.6
		c-1.61,1.73-2.6,3.84-2.6,6.32v58.09h17.71v-23.91h9.41v-15.73h-9.41v-7.56c0-2.85,1.49-4.21,3.96-4.21h13.13v-15.73H-32.6
		L-32.6,226.86z M32.06,252.25c-4.83-4.83-10.65-7.18-17.22-7.18c-7.06,0-12.76,2.35-17.46,7.18c-4.83,4.83-7.31,10.78-7.31,17.46
		c0,7.06,2.48,12.76,7.31,17.46c4.83,4.83,10.65,7.43,17.46,7.43c6.56,0,12.39-2.6,17.22-7.43c4.83-4.83,7.31-10.65,7.31-17.46
		C39.36,263.03,36.89,257.21,32.06,252.25z M7.41,269.72c0-4.71,2.6-7.06,7.43-7.06c4.71,0,7.18,2.35,7.18,7.06
		c0,4.83-2.48,7.18-7.18,7.18C9.88,276.78,7.41,274.43,7.41,269.72z M86.18,252.25c-4.83-4.83-10.65-7.18-17.22-7.18
		c-6.94,0-12.76,2.35-17.46,7.18c-4.83,4.83-7.31,10.78-7.31,17.46c0,7.06,2.48,12.76,7.31,17.46c4.83,4.83,10.65,7.43,17.46,7.43
		c6.56,0,12.39-2.6,17.22-7.43c4.83-4.83,7.31-10.65,7.31-17.46C93.49,263.03,91.14,257.21,86.18,252.25z M61.53,269.72
		c0-4.71,2.6-7.06,7.43-7.06s7.18,2.35,7.18,7.06c0,4.83-2.35,7.18-7.18,7.18C64.14,276.78,61.53,274.43,61.53,269.72z
		 M247.08,252.25c-4.83-4.83-10.65-7.18-17.46-7.18s-12.51,2.35-17.46,7.18c-4.83,4.83-7.18,10.78-7.18,17.46
		c0,7.06,2.35,12.76,7.18,17.46c4.83,4.83,10.65,7.43,17.46,7.43c6.94,0,12.76-2.6,17.46-7.43c4.95-4.83,7.18-10.53,7.18-17.46
		C254.26,263.03,251.91,257.21,247.08,252.25z M224.54,264.76c1.49-1.36,3.1-1.98,4.95-1.98c4.83,0,7.18,2.35,7.18,7.06
		c0,4.83-2.35,7.18-7.18,7.18s-7.06-2.35-7.06-7.18C222.55,267.98,223.17,266.37,224.54,264.76L224.54,264.76z M267.02,252.25
		c-4.83,4.83-7.31,10.78-7.31,17.46c0,7.06,2.48,12.76,7.31,17.46c4.83,4.83,10.65,7.43,17.46,7.43c8.79,0,15.73-3.84,20.68-11.4
		l-14.86-9.54c-1.49,2.11-3.22,3.1-5.82,3.1c-4.95,0-7.43-2.35-7.43-7.18c0-4.71,2.6-7.06,7.43-7.06c2.6,0,4.34,1.11,5.82,3.34
		l14.86-9.54c-4.95-7.56-11.89-11.4-20.68-11.4C277.55,245.19,271.85,247.55,267.02,252.25z M436.96,284.71
		c-2.97,0-4.46,1.49-4.46,4.58c0,3.1,1.49,4.58,4.46,4.58c3.1,0,4.58-1.49,4.58-4.58C441.54,286.19,440.06,284.71,436.96,284.71z
		 M433.24,289.29c0-2.48,1.11-3.72,3.72-3.72c2.6,0,3.84,1.36,3.84,3.72c0,2.6-1.36,3.84-3.84,3.84
		C434.36,293.13,433.24,291.77,433.24,289.29z M439.31,288.17c0-0.99-0.5-1.49-1.73-1.49h-2.35v4.95h0.74v-2.23h0.87l1.49,2.23h0.99
		l-1.61-2.23C438.82,289.54,439.31,289.17,439.31,288.17L439.31,288.17z M435.97,288.79v-1.36h1.36l1.36,0.37
		c0,0.62-0.62,0.87-1.73,0.87h-0.99L435.97,288.79z M326.97,259.69v-32.95h-17.71v67.01h17.71v-14.12l11.77,14.12h20.44l-20.81-24.9
		l16.47-20.19h-19.07L326.97,259.69z M403.76,267.86c0-4.09-1.61-8.42-4.95-13.25c-4.34-5.95-10.16-9.17-17.96-9.54
		c-9.41-0.5-16.6,2.72-21.8,10.03c-3.22,4.46-4.83,9.41-4.83,14.62c0,7.06,2.6,12.76,7.43,17.46c4.83,4.83,10.65,7.43,17.46,7.43
		c5.7,0,10.78-1.61,15.11-5.08l5.95-6.32l-14.24-9.17l-1.73,1.98c-2.35,1.98-4.95,2.35-7.8,1.36l-3.59-2.72L403.76,267.86z
		 M376.64,261.79c3.47-0.99,6.19-0.12,8.42,2.6l-13.75,3.1C372.3,264.76,373.91,263.03,376.64,261.79L376.64,261.79z"/>
</g>
</svg>
