<svg xmlns="http://www.w3.org/2000/svg" viewBox="0 0 550 302"><g fill="none" stroke-width="2"><path stroke="#ef8186" d="M61.18 52.98c5.53 10.32 18.94 12.04 29.3 10 14.05-2.76 19.31-16.68 16.02-29.55-3.33-13-14.32-16.72-26.57-15.79Q60.75 19.1 58.62 37.87a.71.61-86.4 0 1-.62.63H37.5a.75.49 0 0 0-.75.49V43a.75.5 0 0 0 .75.5h7.75a.52.43 89.3 0 1 .43.51l.23 9.82q.07 3.14-3.44 3.65c-8.02 1.15-19.05-1.76-21.5-10.2q-4.44-15.29 8.35-22.03c6.35-3.34 16.47-1.85 23.16-2.24a.82.48-3.2 0 0 .8-.53l-.31-3.73a.74.43-.9 0 0-.71-.4C39.62 18 20.9 16.46 11.13 26.14c-7.34 7.27-7.35 20.03-1.01 27.64 8.64 10.39 27.98 10.1 40.07 8.79 5.94-.64 9.88-2.96 9.83-9.29q-.03-2.51 1.16-.3" vector-effect="non-scaling-stroke"/><path stroke="#81c49e" d="m124.07 29.57-.09-9.06q-.02-2.26-1.97-2.24l-11.52.13a1.14 1 89.5 0 0-.99 1.15c.03 9.93.16 19.9-.2 29.81-.22 6.36.39 13.39 8.7 13.45q25.47.2 50.95.18a.63.52 11.4 0 0 .53-.28l17.6-31.41a.63.4-65.4 0 0-.12-.83q-2.36-.52-4.73-.03a1.43.42-64.4 0 0-.75.83l-14.35 25.58q-.68 1.22-1.28.07l-13.62-26.16a.96.91-12.4 0 0-.82-.49l-26.59-.31a.76.38.6 0 1-.75-.39" vector-effect="non-scaling-stroke"/><path stroke="#8593a5" d="M351.73 19.1q-5.09-.49-7.73 4.11" vector-effect="non-scaling-stroke"/><path stroke="#88bcde" d="M344 23.21q-6.91 5.86-13.09 12.48a1.88 1.77-19.5 0 0-.45.87q-.98 5.32-.17 10.69" vector-effect="non-scaling-stroke"/><path stroke="#fac692" d="M330.29 47.25q-.43 2.15 1 3.46 8.07 7.43 15.86 14.56a4.74 4.71-18.9 0 0 2.41 1.17q6.19 1 10.73-.44" vector-effect="non-scaling-stroke"/><path stroke="gray" d="M360.29 66q.99.71 2.65.92" vector-effect="non-scaling-stroke"/><path stroke="#88bcde" d="m362.94 66.92 18.03-16.81a1.71 1.48 77.8 0 0 .46-.84q1.19-5.41.03-10.77" vector-effect="non-scaling-stroke"/><path stroke="#fac692" d="M381.46 38.5q.83-2.3-1.38-4.36-7.9-7.41-16.08-14.76a1.76 1.68 69.4 0 0-.87-.42q-5.74-1-11.4.14" vector-effect="non-scaling-stroke"/><path stroke="#838271" d="m381.46 38.5-11.16 4.13" vector-effect="non-scaling-stroke"/><path stroke="#fac692" d="M370.3 42.63q-5.17-1.34-9.71-3.77a1.72 1.66.5 0 1-.69-.68q-1.97-3.54-2.95-8.38-.16-.8-1.16-.3" vector-effect="non-scaling-stroke"/><path stroke="#838271" d="M355.79 29.5q.51-1.58-.79-2.59" vector-effect="non-scaling-stroke"/><path stroke="#805938" d="M355 26.91q-.78-4.16-3.27-7.81" vector-effect="non-scaling-stroke"/><path stroke="#0d4f84" d="m355 26.91-5.23-6.06a1.37 1.27-50.1 0 0-2.11.27q-1.3 2.09-3.66 2.09" vector-effect="non-scaling-stroke"/><path stroke="#88bcde" d="M355.79 29.5c-2.12 9.46-5.56 10.48-14.04 13.04" vector-effect="non-scaling-stroke"/><path stroke="#5284a6" d="M341.75 42.54q-.97.02-1.5.92" vector-effect="non-scaling-stroke"/><path stroke="#838271" d="M340.25 43.46c-3.71 1.21-6.44.93-9.96 3.79" vector-effect="non-scaling-stroke"/><path stroke="#083c5f" d="M362.94 66.92q-.44-1.36-1.34-1.87a1.71.58 21.4 0 1-.76-.64l-1.91-3.35a1.36 1.02 77.2 0 0-.73-.62l-.66-.19" vector-effect="non-scaling-stroke"/><path stroke="#838271" d="m357.54 60.25-1.33-3.5" vector-effect="non-scaling-stroke"/><path stroke="#88bcde" d="m370.3 42.63-9.73 4.25a1.64 1.21-80.1 0 0-.69.66q-2.48 4.39-3.67 9.21" vector-effect="non-scaling-stroke"/><path stroke="#fac692" d="M356.21 56.75q-1.49-3.43-2.93-6.89c-1.83-4.4-6.94-6.08-11.28-6.65" vector-effect="non-scaling-stroke"/><path stroke="#c9c7c7" d="m342 43.21-.25-.67" vector-effect="non-scaling-stroke"/><path stroke="#7b4613" d="m357.54 60.25 2.75 5.75" vector-effect="non-scaling-stroke"/><path stroke="#c48e5a" d="m342 43.21-1.75.25" vector-effect="non-scaling-stroke"/><path stroke="gray" d="M399.32 37.24c.75-4.82 7.3-3.8 10.02-1.97a.85.39 35.8 0 0 .85.17l1.88-1.87a.63.44 37.5 0 0-.25-.8c-5.4-3.53-18.03-3.06-16.07 5.78q.6 2.68 3.34 3.61l8.93 3.05q2.47.84 1.47 3.28c-1.92 4.69-8.33 3.67-11.57 1.27a.83.41 38.4 0 0-.84-.18l-1.95 1.8a.69.48 38.8 0 0 .26.88q5.51 3.93 11.94 2.34c6.49-1.61 8.82-10.33 1.33-12.69q-4.08-1.28-8.13-2.67a1.82 1.82-76.3 0 1-1.21-2M463.5 34h7a.86.44.6 0 0 .85-.42l.13-2.33a.72.47 1 0 0-.73-.5H451a.5.5 0 0 0-.5.5v2.25a.5.5 0 0 0 .5.5h7.5a.75.46-90 0 1 .46.75l-.16 19a.75.7-79.5 0 0 .43.68q4.12 1.73 3.64-2.58-.65-5.72.16-17.29a.6.46-87.4 0 1 .47-.56m-38.75 18.25a.73.61-15 0 0-.97-.45c-4.54 1.75-3.03-8.55-3.01-10.61a.77.74-79.9 0 1 1-.73q3.66 1.36 2.55-2.26a.66.5 76.9 0 0-.58-.48l-2.48.28a.73.46 88.1 0 1-.51-.75V33.5a.49.36 81.7 0 0-.5-.51l-2.95 1.3a1.15.37 88.3 0 0-.29 1.01q-.07 6.94.1 13.9.16 6.73 6.6 5.6a1.08.82 1.2 0 0 .77-.56q.37-.96.27-1.99m100.34-11.86c-4.76 10.01 12.47 4.51 9.98 10.3a1.38 1.26-1.1 0 1-.74.7q-4.2 1.66-7.9-.81a.77.56 37.5 0 0-.86-.02l-1.76 1.76a.5.43 37.3 0 0 .15.72q4.64 2.77 9.79 1.77c4.88-.95 8-6.28 2.52-9.43-2.19-1.25-5.97-.15-7.64-1.73-3.75-3.56 4.91-3.37 6.67-2.54a1.14.43 29.7 0 0 .96.15q1.05-.71 1.69-1.83a.65.5 26.9 0 0-.37-.77q-4.67-2.15-9.6-.73-2 .58-2.89 2.46m-86.89 4.14c-2.51.43-5.45-.18-7.52.67-3.23 1.33-4.24 5.31-1.92 7.99 2.59 3 9.42 1.7 13.21.61a.68.66-8.1 0 0 .49-.64c.07-5.04 2.08-14.14-4.66-15.46q-4.77-.92-8.74 1.19a.93.49-28.6 0 0-.59.88q.66 1.19 1.88 1.88a.94.51-40 0 0 .83-.17c2.44-1.6 8.08-2.31 7.59 2.46a.7.68-1.8 0 1-.57.59" vector-effect="non-scaling-stroke"/><path stroke="gray" d="m450.99 40.91 3.78-.32a1 .62-.1 0 0 .84-.52q.26-1.03-.15-2.07a.78.78-10.2 0 0-.71-.49q-3.83-.13-7.5 1.01a.78.72 81.9 0 0-.5.73v15a.5.5 0 0 0 .5.5H450a.5.5 0 0 0 .5-.5v-12.5a.86.53 88.7 0 1 .49-.84m20.26-3.09a.31.31 0 0 0-.31-.31h-3.12a.31.31 0 0 0-.31.31v16.62a.31.31 0 0 0 .31.31h3.12a.31.31 0 0 0 .31-.31V37.82m9.1 3.14q4.29-1.77 6.79 1.61a1.37.15-89.2 0 1 .11 1.18v10.5a.5.5 0 0 0 .5.5h3a.49.38-90 0 0 .38-.49l-.1-11.51a1.99 1.74-12.8 0 1 1.24-1.7q2.17-.9 4.5-.37 1.73.39 1.73 2.32v11.25a.5.5 0 0 0 .5.5l2.74-.01a.53.53-87.7 0 0 .53-.49q.41-5.75-.04-11.47c-.53-6.73-7.93-6.03-12.28-3.91a.94.93-42.8 0 1-.88-.03c-3.56-1.99-7.73-1.7-12.58-.2a.73.61-10.2 0 0-.51.61l-.24 15a.51.49.6 0 0 .51.5h3a.5.5 0 0 0 .5-.5V41.5a.88.37-19.1 0 1 .6-.54M518.26 38c-10.91-2.89-13.92 4.14-11.47 13.29q.57 2.12 2.53 2.88 5.62 2.18 10.7-.86a.73.48-35.9 0 0 .34-.91l-1.8-1.71a.85.54-41.1 0 0-.94.14c-2.35 1.9-8.24 2.03-7.54-2.49a.61.61 3.9 0 1 .59-.51c4.59-.18 12.27.35 10.42-6.96q-.57-2.27-2.83-2.87" vector-effect="non-scaling-stroke"/><path stroke="#81acd1" d="M324.94 224.56c-33.89.51-69.62-4.23-100.93-17.82-19.22-8.35-46.16-26.5-40.06-51.58 6.38-26.17 44.93-41.21 67.99-46.98q35.3-8.83 70.96-7.88c.56.02 2.17-.36 1.7-1.13a1.26.81-4.6 0 0-.84-.45c-35.39-4.55-71.88-1.66-105.31 11.2-19.24 7.4-40.56 21.5-46.92 41.13-4.17 12.87.15 27.21 8.92 37.26 31.93 36.59 100.2 42.88 144.51 36.31q.49-.07-.02-.06" vector-effect="non-scaling-stroke"/><path stroke="#c9c7c7" d="M230.75 156.04q-6.92 1.1-13.9 1.25c-.44.01-1.55.58-.28.85q4.22.89 13.41.82" vector-effect="non-scaling-stroke"/><path stroke="#82adc3" d="M229.98 158.96c12.04.41 72.3-.93 76.65-14.61q1.38-4.36-3.78-7.14" vector-effect="non-scaling-stroke"/><path stroke="#90d1bb" d="M302.85 137.21q-3.09-2.35-7.1-3.67" vector-effect="non-scaling-stroke"/><path stroke="#fcc9a3" d="M295.75 133.54q-3.54-1.89-7.5-2.25" vector-effect="non-scaling-stroke"/><path stroke="#f49993" d="m288.25 131.29-2.5-.75" vector-effect="non-scaling-stroke"/><path stroke="#f8a7c3" d="m285.75 130.54-1.75-.5" vector-effect="non-scaling-stroke"/><path stroke="#d7a8c4" d="m284 130.04-4.98-.84q-.62-.1-.04.19c9.88 4.98-12.03 15.29-14.6 16.42q-16.19 7.11-33.63 10.23" vector-effect="non-scaling-stroke"/><path stroke="#d05087" d="M284 130.04q-.69.87-.82 1.98a1.4 1.04 36.5 0 0 .27.88q1.7 2.28.11 3.81c-3.04 2.93-7 6.49-11.07 7.8q-3.71 1.2-16.08 6.7" vector-effect="non-scaling-stroke"/><path stroke="#cc4258" d="M256.41 151.21q-1.04.9-2.41 1.02a1.45.65 4 0 0-.89.33q-.53.57-.11 1.4" vector-effect="non-scaling-stroke"/><path stroke="#d47268" d="M253 153.96q-9.65 2.21-19.5 3.33" vector-effect="non-scaling-stroke"/><path stroke="#a1708c" d="M233.5 157.29q-2.62.7-2.75-1.25" vector-effect="non-scaling-stroke"/><path stroke="#ed4157" d="m285.75 130.54-.14.48a.65.5 18.6 0 0 .44.65c3.22 1.2 2.46 4.51.45 6.43-7.57 7.25-20.07 11.53-30.09 13.11" vector-effect="non-scaling-stroke"/><path stroke="#f16237" d="M288.25 131.29c3.78 1.35 4.95 4.58 2.41 7.76-4.12 5.14-12.58 7.6-19.37 9.9q-9 3.05-18.29 5.01" vector-effect="non-scaling-stroke"/><path stroke="#8d9b5f" d="m295.75 133.54-.46.71" vector-effect="non-scaling-stroke"/><path stroke="#f5a94c" d="M295.29 134.25c1.21 5.02-2.36 9.02-6.64 10.63-5.48 2.07-8.41 4.67-14.89 5.16q-2.32.18-.56 1.7.35.3 2.3.47" vector-effect="non-scaling-stroke"/><path stroke="#8d9b5f" d="m275.5 152.21-15.5 3.5" vector-effect="non-scaling-stroke"/><path stroke="#7f7667" d="M260 155.71q-13.18 1.84-26.5 2" vector-effect="non-scaling-stroke"/><path stroke="#c6916b" d="M233.5 157.71v-.42" vector-effect="non-scaling-stroke"/><path stroke="#137f7f" d="m302.85 137.21.72 3.73a1.64 1.59 51.8 0 1-.1.96c-4.05 9.31-33.32 14.4-43.47 13.81" vector-effect="non-scaling-stroke"/><path stroke="#89b163" d="M275.5 152.21c5.27-1.19 23.12-6.36 24.03-12.75q.59-4.19-4.24-5.21" vector-effect="non-scaling-stroke"/><path stroke="#4c758b" d="M229.98 158.96q1.34-1.51 3.52-1.25" vector-effect="non-scaling-stroke"/><path stroke="#a6a5a4" d="M235.75 176.21c-2.98 3.79-7.66 3.48-12 3.75" vector-effect="non-scaling-stroke"/><path stroke="#c9c7c7" d="M223.75 179.96q-.65-.41-.33-.86a1.61.83-42.6 0 0 .31-.85l-.24-9.25a.29.23-19 0 0-.42-.15c-.59.34-4.36-.11-5.57.19" vector-effect="non-scaling-stroke"/><path stroke="#a6a5a4" d="m217.5 169.04-1.38-.43a.43.31-84.2 0 0-.4.45l-.05 12.94a1.61 1.35 88.9 0 0 1.42 1.63c6.06-.34 11.13.16 18.13-1.35" vector-effect="non-scaling-stroke"/><path stroke="#949394" d="M235.22 182.28c11.3-4.57 11.53-14.48.97-18.85-5.98-2.48-13.51-2.24-19.89-2.17a.56.49-.6 0 0-.55.49v2a.53.5-1.1 0 0 .55.5c8.5-.26 24.51-.94 19.45 11.96" vector-effect="non-scaling-stroke"/><path stroke="#3b3939" d="M235.22 182.28q.24-1.43-.72-1.07" vector-effect="non-scaling-stroke"/><path stroke="#949394" d="m234.5 181.21 1.75-.92" vector-effect="non-scaling-stroke"/><path stroke="#878585" d="M236.25 180.29q1.21.33 1.23-.73a.48.44 84.5 0 0-.54-.49q-.62.15-1.3.95" vector-effect="non-scaling-stroke"/><path stroke="#949394" d="M235.64 180.02q0-1.43 1.05-2.59.4-.44-.05-.46l-.39-.01" vector-effect="non-scaling-stroke"/><path stroke="#3b3939" d="m236.25 176.96-.5-.75" vector-effect="non-scaling-stroke"/><path stroke="#f2f1f1" d="m235.64 180.02.61.27" vector-effect="non-scaling-stroke"/><path stroke="#a6a5a4" d="M236.25 176.96q-2.91 4.04-9.09 3.91-1.47-.04-2.9.28-.66.15-1.51-.86" vector-effect="non-scaling-stroke"/><path stroke="#706d6c" d="M217.5 169.04q-1 4.95-.68 9.93" vector-effect="non-scaling-stroke"/><path stroke="#a6a5a4" d="M216.82 178.97q-.44 1.56.04 3.01a.7.67-10.1 0 0 .68.45c4.94-.18 11.24.65 16.96-1.22" vector-effect="non-scaling-stroke"/><path stroke="#706d6c" d="m223.75 179.96-1 .33" vector-effect="non-scaling-stroke"/><path stroke="#c9c7c7" d="M222.75 180.29q-3.45 1.09-5.93-1.32m55.72-5.47-.25 3.75" vector-effect="non-scaling-stroke"/><path stroke="gray" d="M272.29 177.25c-1 4.71 1.47 6.28 5.82 6.26q7.81-.03 15.65 0a.74.5 0 0 0 .74-.5l.01-1.26q0-.48-.67-.08c-2.37 1.4-13.14.73-17.84.91q-1.79.07-2.79-2.08" vector-effect="non-scaling-stroke"/><path stroke="#c9c7c7" d="m273.21 180.5 4.36.32a.45.38 87.8 0 0 .39-.5q-.14-1.2 1-1.57" vector-effect="non-scaling-stroke"/><path stroke="gray" d="M278.96 178.75q.45.69.17 1.4a.75.69-52.6 0 0 .06.66q.11.17.31.19a.72.4-89 0 0 .43-.75l-.16-9.18a.84.72 89.6 0 1 .72-.85l12.76-.09a.79.43 71.6 0 1 .53.49l3.01 6.88" vector-effect="non-scaling-stroke"/><path stroke="#c9c7c7" d="m296.79 177.5.93 3.77q.26 1.07.37.04l.07-.63q.07-.6.65-.04c1.23 1.17 4.16-.41 1.64-1.08a1.83.91-31.8 0 0-.96.09q-1.25.41-1.45-.65" vector-effect="non-scaling-stroke"/><path stroke="gray" d="m298.04 179 2.19-.17a.33.33-15.3 0 0 .27-.47q-1.57-3.25-2.66-6.67-.33-1.06-.28-1.69.04-.58.34.05l4.93 10.66a1.01.53 69.7 0 0 .71.64c.97-.06-4.07-11.51-4.46-12.54a.72.56 76.7 0 0-.57-.46l-18.44.44a.45.32-89.8 0 1-.33-.46l.12-6.08a.61.44.4 0 0-.61-.45l-6.76-.01a.48.44 88.2 0 0-.44.51l.49 11.2" vector-effect="non-scaling-stroke"/><path stroke="#4a4848" d="M298.04 179q-.27-1.17-1.25-1.5m-17.83 1.25-.1-6.31a.82.74 12.3 0 0-.51-.71q-3.65-1.53-5.81 1.77m.67 7q-.5-1.26-.33-2.59a.63.39-77.3 0 0-.2-.59q-.17-.09-.39-.07" vector-effect="non-scaling-stroke"/><path stroke="#c9c7c7" d="M262.29 176.5q.21 1.66-.56 3.77" vector-effect="non-scaling-stroke"/><path stroke="#f2f1f1" d="m261.73 180.27-14.08.39a.34.32 79.4 0 0-.29.45q.25.71-.11 1.35" vector-effect="non-scaling-stroke"/><path stroke="gray" d="M247.25 182.46q-.5.3-.98.19a.99.7 80.7 0 1-.58-.59q-1.04-2.69-.95.72a.74.73-.8 0 0 .74.71q10.13.05 20.2-.03 3.46-.03 4.82-4.17" vector-effect="non-scaling-stroke"/><path stroke="#c9c7c7" d="M270.5 179.29c1.77-2.83-1.24-5.77-3.51-6.95-2.91-1.51-8.94-.94-12.45-1.09" vector-effect="non-scaling-stroke"/><path stroke="#949394" d="M254.54 171.25q-2.8-3.63.12-6.6a1.32 1.01 16.4 0 1 .84-.32l14.26-.22a.75.36-.6 0 0 .74-.37v-1.23a.79.35-1.2 0 0-.8-.34q-9.1.16-18.19.06c-8.17-.1-9.07 10.26-.84 11.62q2.25.37 9.26.28 2.03-.02 2.36 2.37" vector-effect="non-scaling-stroke"/><path stroke="#5e5b5c" d="M254.54 171.25q-.17.57-.01 1.08a.67.57-11.2 0 0 .7.39c2.09-.26 9.19-.72 7.06 3.78" vector-effect="non-scaling-stroke"/><path stroke="#4a4848" d="m270.5 179.29-1 .5" vector-effect="non-scaling-stroke"/><path stroke="#bcb9b9" d="M269.5 179.79q-3.91 1.11-7.77.48" vector-effect="non-scaling-stroke"/><path stroke="#727271" d="m247.25 182.46 18.69-.02q2.06-.01 3.56-2.65" vector-effect="non-scaling-stroke"/><path stroke="gray" d="M312.99 167.6q-.85.42-.54 1.28a1.28.51 13.5 0 0 .79.56q2.07.74 1.58-1.23a1.36 1.12-21 0 0-1.83-.61m-2.44.69c-1.78-.75-5.98 12.87-6.22 13.63a.73.73-83 0 1-.65.51c-.12 0-7.42-.66-5.11 1.09a1.1 1.06-33.1 0 0 .92.18q1.89-.49 3.75.09a1.46 1.38-69.9 0 0 1.71-.85l5.83-13.93a.58.49-67.3 0 0-.23-.72m-22.15 20.92q.36-2.19-.69-1.54a1.04.67 79.5 0 0-.34.82l.05 5.01a1.56.82-77.8 0 0 .26.93c1.5 1.74-.79-5.71 2.92-3.59a1.09 1-78.2 0 1 .5.84l.13 2.32a.84.47-87.2 0 0 .34.69l.17.06a.67.34-88.5 0 0 .42-.77c-.14-2.12-.07-5.17-3.37-4.43a.32.31-2.7 0 1-.39-.34m-33.56 4.7q-.26-.67-.92-.5-.79.19.05.9 2.64 2.23 4.03-.82a.71.51-64.8 0 0-.16-.85l-2.53-1.18a.68.55 27.4 0 1-.37-.84q.36-.6 2.24-.04.92.28.29-.44-1.5-1.71-3.39 0a.77.76-31.7 0 0-.2.83c.71 1.85 4.66 2.12 2.3 3.49a1 .91 64.8 0 1-1.34-.55m28.23-.47q-.63-1.8.74-3.14a.62.62-44.3 0 1 .87.01l.88.88q.51.5.46-.2-.07-1.17-1.22-1.58a1.27 1.18-47 0 0-.98.07c-2.17 1.05-2.55 4.01-.57 5.32 1.66 1.1 3.55-1.36 2.73-1.51a.82.75-68.5 0 0-.8.39q-.47.78-1.36.5a1.22 1.18 88.6 0 1-.75-.74m-21.802 1.808a2.92 2.46 92.2 0 0 2.57-2.824 2.92 2.46 92.2 0 0-2.346-3.012 2.92 2.46 92.2 0 0-2.57 2.824 2.92 2.46 92.2 0 0 2.346 3.012m9.082-4.318.42 3.32a.63.4-89.2 0 0 .3.48q.26.09.44-.13a1.14.31 78.1 0 0 .05-.91q-.21-1.49.22-2.94a.63.61-76.4 0 1 .7-.44q2.25.45 1.18 2.7a1.48.71 61.4 0 0 .05 1q.14.41.42.58a.44.37-71.1 0 0 .56-.34q.45-2.31-.58-4.32a1.2.38 8.3 0 0-.86-.42q-.94-.2-1.43.56a.76.44 31.5 0 1-.88-.02q-1.96-1.22-3.71.51-.76.75.17 3.74.13.4.41.64.37.31.42-.69c.04-.93-.41-4.41 1.5-3.88a.89.57 9.6 0 1 .62.56m5.85-.02q-.58 5.23 4.07 3.72a.7.55-13.8 0 0 .5-.64l-.3-2.23a1.24.41 77.2 0 1 .09-.94q.48-.58-.13-1.01a.37.34-66.2 0 0-.53.23c-.19.76.25 5.8-2.06 3.9-.91-.75-.92-2.18-.67-3.25a1.11.75-65.3 0 0-.15-.9q-.62-.67-.82 1.12m24.73-.26c2.87-1.28.46 4.66 2.36 3.97a.71.57 77.3 0 0 .36-.73c-.23-1.49.41-4.69-2.16-4.42a1.19.96 9.6 0 0-.82.46q-.67 1.07-1.34 0a.98.8 68 0 0-.84-.46l-2.49.28a.57.5-3.9 0 0-.5.5V194a.85.56-81.2 0 0 .32.69q.2.1.43.06a.78.59 86.7 0 0 .5-.75v-2.5a.75.5-90 0 1 .5-.75h1.25a.75.5 90 0 1 .5.75v2.5a.72.55-86.9 0 0 .47.69q.79.12.89-3.18a.98.97 78.9 0 1 .57-.86m6.335 4.49a2.87 2.55 89.9 0 0 2.545-2.874 2.87 2.55 89.9 0 0-2.555-2.866 2.87 2.55 89.9 0 0-2.545 2.874 2.87 2.55 89.9 0 0 2.555 2.866m5.725-4.15q.69-.18 1.02-.72.4-.64-.57-.6l-1.68.07a.79.76-1.2 0 0-.76.76l-.01 3.5a1.21 1 20.4 0 0 .52.9c.85.6.87-2.96.94-3.35a.76.67-4.6 0 1 .54-.56m4.324 4.15a2.84 2.43 88.7 0 0 2.365-2.895 2.84 2.43 88.7 0 0-2.493-2.784 2.84 2.43 88.7 0 0-2.365 2.894 2.84 2.43 88.7 0 0 2.493 2.784" vector-effect="non-scaling-stroke"/><path stroke="#ed9c93" d="M407.71 218.442a12.46 10.8.7 0 0-12.328-10.951 12.46 10.8.7 0 0-12.591 10.647 12.46 10.8.7 0 0 12.327 10.951 12.46 10.8.7 0 0 12.591-10.647" vector-effect="non-scaling-stroke"/><path stroke="#f49993" d="M138.66 234.26a8.35 8.35 0 0 0-8.35-8.35 8.35 8.35 0 0 0-8.35 8.35 8.35 8.35 0 0 0 8.35 8.35 8.35 8.35 0 0 0 8.35-8.35" vector-effect="non-scaling-stroke"/><path stroke="#ed9c93" d="m376.12 240.39-22.9 28.57q-.77.97.22.23l46.23-34.03q.53-.4-.1-.49l-45.76-6.96q-1.53-.23-.22.44l22.35 11.47a.52.5 32.8 0 1 .18.77" vector-effect="non-scaling-stroke"/><path stroke="#8397ac" d="M363.85 242.18c-3.33 7.08-6.56 14.15-9.99 21.16q-.22.44.12.39a.57.46 11.7 0 0 .33-.17l18.37-22.63a.56.48-55.3 0 0-.09-.8l-17.79-9.42q-1.37-.73-.38.36l9.28 10.23a.83.78 37.3 0 1 .15.88" vector-effect="non-scaling-stroke"/><path stroke="#84a0ba" d="M130.66 247.52q-1.92-.19-3.51-1.68l-14.41-13.58a1.07.9 56.1 0 0-.94-.27q-.65.18-.26.95 6.29 12.26 16.57 22.03 1.66 1.58 3.51.21 5.66-4.21 9.96-11.11c.66-1.06-.53-1.21-1.19-.86-2.02 1.08-7.68 4.51-9.73 4.31m-112.55 15.3c1.21-6.74 2.12-17.54 10.42-18.42 6.64-.71 6.42 5.47 5.34 10.13-1.17 5.09-1.81 11.68-6.91 14.47a.74.44-28.3 0 0-.44.74l1.75 3.22a.86.36-29.3 0 0 .93-.11q5.91-3.42 8.05-11.09c2.04-7.29 5.54-18.13-2.53-21.32-8.66-3.44-16.63 2.72-19.28 11.23-2.13 6.83-5.49 18.46 2.09 21.95a.79.64 27.8 0 0 .92-.18l2.31-3.44a.77.43 36.5 0 0-.35-.78q-3.03-2.34-2.3-6.4m54.42-18.81c-1.27-.03-1.91-.54-3.25.06a.91.87 83.6 0 0-.52.68l-.53 3.25a.7.28 12.4 0 0 .61.41q4.79 1.12 4.22-3.92a.55.54-2.4 0 0-.53-.48M100.76 265l2.98 8a1.11.65 74.8 0 0 .76.75l4 .01a.5.46 77.8 0 0 .41-.69l-4.62-11.34a.98.48 63.8 0 1 0-.93l7.74-7.01q1.32-1.19-.32-1.31c-1.88-.14-3.47.01-4.97 1.4q-4.18 3.87-8.32 7.8-.87.81-.58-.41l3.86-16.28a.81.74-82.6 0 0-.7-1h-2.75a.76.66-82.3 0 0-.66.58l-6.53 28.44a.57.55-78.7 0 0 .44.68q1.98.36 3.8-.29a1.05.35 87.9 0 0 .28-.94q-.02-5.41 4.65-7.94a.61.29 67.9 0 1 .53.48m78.43 8.06q3.21 2.23 4.86.67 1.19-1.13 1.18-3.01a.55.48-6.1 0 0-.64-.45c-2.49.43-3.09-.96-2.59-3.12q2.56-11.17 5.02-22.39a.65.35-80.8 0 0-.26-.76l-3.45.04a1.06.31-78 0 0-.49.91q-2.7 11.81-5.26 23.55-.66 2.98 1.63 4.56m11.7.07q2.1.95 4.35.57a1.03.12-9.2 0 0 .87-.25q2.32-3.21-1.14-3.35a1.63 1.58 7.1 0 1-1.55-1.92c1.67-7.37 3.11-14.77 5.02-21.73q1.03-3.75-3.24-2.34a.99.88 88.7 0 0-.6.71l-5.59 24.43q-.63 2.74 1.88 3.88" vector-effect="non-scaling-stroke"/><path stroke="#8593a5" d="M483.545 247.382a1.77 1.5-13 0 0-2.062-1.064 1.77 1.5-13 0 0-1.388 1.86 1.77 1.5-13 0 0 2.062 1.064 1.77 1.5-13 0 0 1.388-1.86m33.675 19.108.93-8.56q.21-1.92 2.8-2.22 3.66-.43 3.74 2.1c.04 1.53.36 9.08-2.71 9.98a.69.45-7.9 0 0-.46.4q-.09.37.47.28c.85-.14 7.16-.18 7.18-.24a.62.24 27.4 0 0-.42-.48l-1.45-.8a1.09.59-80.5 0 1-.32-.94c.23-2.96 1.25-7.79.4-10.16-1.5-4.19-5.89-1.4-8.53-.18q-.6.28-.53-.42l.94-8.5a.47.41 86.9 0 0-.51-.53l-4.68 1.35q-.56.16.08.51l1.49.82a.95.64-77.5 0 1 .33.85L514.26 266a1.25 1.2-16.2 0 1-.5.87l-1.63 1.22q-.73.54.12.4 3.34-.54 6.68-.01 2.06.32.27-.68-.67-.38-1.38-.63a.84.56 14.8 0 1-.6-.68" vector-effect="non-scaling-stroke"/><path stroke="#84a0ba" d="m151.69 255.85 2.56.19a.91.6 13.4 0 0 .75-.27q2.7-4.02-1.98-3.09a.76.68-87.3 0 1-.77-.94l1.09-4.42a.51.41-80.1 0 0-.35-.62l-3.24-.21a.73.63-81.8 0 0-.67.58l-1.09 4.93a.6.5-81.1 0 1-.54.48q-2.8-.18-2.6 2.79a.71.49 88.4 0 0 .48.66l1.18.06a.61.49-81.6 0 1 .43.73c-1.03 4.57-7.03 18.62 3.63 17a.99.48-2.4 0 0 .75-.4q.5-1.24.43-2.57a.55.49 88.1 0 0-.49-.52q-1.4.01-2.47-.74a1.02.87-67.5 0 1-.32-1l2.68-12.06a.72.46-79.6 0 1 .54-.58" vector-effect="non-scaling-stroke"/><path stroke="#8593a5" d="M399.13 255.81c-.28 2.71-2.48 12.09 1.33 12.66q2.99.45 4.43-2.38.21-.41-.25-.23l-2.18.85a.94.91 82.1 0 1-1.24-.97l.81-9.74a.81.44-85.9 0 1 .48-.75l2.49-.01a1.09.54 5.9 0 0 .88-.33q.44-.82-2.79-1.1a.82.81-80.4 0 1-.72-1.02q1.51-5.84-1.27-1.62c-.9 1.38-2.7 2.53-4.03 3.5q-.48.36.09.45l1.53.21a.51.42 7.6 0 1 .44.48m90.54 12.5q3 .65 4.72-1.91c1.23-1.84-2.19 1.07-3.17-.21-.9-1.15.39-8.49.59-10.28a.73.42-85.4 0 1 .45-.66l2.24-.01a1.73 1.47-58.8 0 0 .93-.31q.62-.43 0-.87a.98.03 3.1 0 0-.93-.08l-2.33-.12a.82.33-73.2 0 1-.09-.97q.48-1.41.24-2.96-.14-.87-.58-.16-1.85 3.03-4.96 4.72-.71.39.14.58l1.53.35a.55.51 9.9 0 1 .43.56l-1.08 9.76q-.23 2.11 1.87 2.57" vector-effect="non-scaling-stroke"/><path stroke="#84a0ba" d="M161 264.5h12.25a.9.77-77 0 0 .75-.55c6.26-15.02-16.31-16.3-17.72 2.3-.72 9.41 9.8 9.19 15.12 5.11a.91.74-28.2 0 0 .36-.86q-.4-1.46-1.73-2.05a1.13.53-44.3 0 0-.93.32c-3.31 2.72-10.15 2.07-8.67-3.73a.7.55-81.7 0 1 .57-.54m-99.76-9.82q1.03-3.46-3.45-2.01a.88.86-3.6 0 0-.58.65q-2.34 10.95-3.18 13.43c-1.41 4.16-9.58 5.28-8.13-.97q1.43-6.2 2.77-12.5a.66.48-82.5 0 0-.43-.78h-2.99a.88.69-81.1 0 0-.71.67c-.98 3.95-4.22 14.14-2.86 17.75 1.54 4.12 7.07 3.52 10.42 1.55a.62.46 56.8 0 1 .7.26q1.24 1.82 3.67.85a.9.57-87.2 0 0 .43-.61c1.46-6.05 2.56-12.34 4.34-18.29m9.963-1.495a.27.27 0 0 0-.203-.323l-3.45-.79a.27.27 0 0 0-.324.202l-4.769 20.821a.27.27 0 0 0 .203.323l3.45.79a.27.27 0 0 0 .324-.202l4.769-20.821m18.357.355c-9.13-3.56-15.05 2.66-16.38 11.14-1.54 9.77 7.7 11.56 13.98 6.92a.76.46-37.7 0 0 .33-.85l-1.8-2.19a.79.43-40.5 0 0-.9.19q-3.22 2.84-6.63.38a1.47 1.43-78.8 0 1-.56-.86c-1.26-5.61 3.32-16.37 10.04-10.63a.66.58 44.4 0 0 .81.04l1.8-1.51q1.92-1.62-.69-2.63M205 264.5h12.25a.8.73 10.5 0 0 .72-.45c5.79-14.06-12.52-15.35-16.46-3.53-1.23 3.68-2.41 8.55.49 11.52 3.44 3.53 9.93 1.89 13.44-.71a.91.6-33.3 0 0 .39-.9q-.54-1.18-1.56-1.95a.78.6-46 0 0-.86.13c-3.35 2.96-10.17 2.49-8.96-3.56a.68.53-83 0 1 .55-.55m24.3-10.83q-1.14-2.05-3.56-.84a.96.16-25.1 0 0-.7.48l-4.5 19.7a.59.49-83.1 0 0 .46.72l3.32-.1a.91.33-78.1 0 0 .46-.75c1.14-4.84 2.1-20.06 10.7-15.78a.82.63 34.6 0 0 .85-.04l2.89-2.69a.49.44 37.4 0 0-.14-.74q-4.75-2.58-9.28.44a.57.24 61 0 1-.5-.4" vector-effect="non-scaling-stroke"/><path stroke="#8593a5" d="M383.93 255.7q.15-.92-.29-1.65a.79.73-24.2 0 0-.9-.3l-3.73 1.24q-.71.23-.17.59.51.33 1.14.43a.63.49 4.9 0 1 .53.49q.05 5.06-1 10a1.22.83-15.1 0 1-.58.68l-1.27.72q-.85.47.22.41 3.29-.19 6.56-.1c2.12.06-1.19-.9-1.39-1.08a1.07 1.01 24.3 0 1-.36-.88l.85-8.24a1.21.78 87.6 0 1 .54-.92l3.69-1.59q2.75-1.19 2.51 2.49c-.18 2.79.26 9.19-3.24 9.97q-.57.13-.14.42c.24.16 6.04-.1 7.15.08.27.04.72-.11.62-.39a.91.27 16.8 0 0-.6-.4l-1.26-.48a1.01.49-83.6 0 1-.32-.92c.18-3.68 3.15-13.13-3.76-12.51-1.69.15-2.97 1.39-4.47 2.2q-.41.21-.33-.26m27.07 3.8 9.56-.06a.61.61-89.5 0 0 .6-.59c.12-3.2-2.11-5.08-5.28-5.07-11.12.01-11.63 16.14-1.32 14.86q4.65-.58 5.89-5.2.13-.48-.18-.08c-4.12 5.34-12.37 1.8-10.05-3.6a.91.35 2.4 0 1 .78-.26m17.47-4.02.29-1.23a.46.43 89.1 0 0-.53-.56l-4.47 1.34q-1.2.36-.19.67l1.5.46a.64.54 11.9 0 1 .46.59l-.92 9.32a1.13.49-89.4 0 1-.4.9l-2.22 1.01a.21.17-27.3 0 0-.12.26c.04.07 6.13.1 7.56.23q.38.03.58-.17a.43.31 29.4 0 0-.26-.56l-1.43-.57a.89.82 10.3 0 1-.55-.73c-.17-2.86.01-12.74 4.75-10 3.52 2.03 3.25-5.01-1.15-2.15q-1.14.74-2.37 1.41-.67.37-.53-.22m16.11-1.44c-4.14-1.19-10.32 1.24-7.16 6.29a1.73 1.44.2 0 0 .73.61c1.98.89 6.74 2.68 5.99 5.22a1.23 1.05-8.4 0 1-.61.7q-5.24 2.57-7.2-3.17-.2-.57-.28.01l-.58 4.05a.5.44 5.4 0 0 .48.51q1.21.07 4.3.53c3.19.49 9.12-3.12 5.71-6.91-1.57-1.74-6.6-2.61-7.23-4.73-.83-2.76 5.9-4.05 7.12 1.16q.16.69.26.02l.63-4.04a.42.41-2.1 0 0-.51-.46l-.71.17q-.61.13-.94.04m34.4 2.51q.42 4.8-.77 9.81a1.54 1.53-88.3 0 1-1.24 1.17q-.78.14-1.04.51-.44.64.33.51 3.36-.53 6.73.02a.63.55 18 0 0 .64-.27c.27-.51-1.46-.95-1.84-1.23a.94.92-69 0 1-.36-.83l1.25-12a.49.38 88.5 0 0-.46-.56l-4.97 1.35q-.82.23.01.47l1.14.34a.81.8 6.4 0 1 .58.71m20.4 11.24q7.53 2.85 10.86-4.34a.63.61 43.9 0 0-.02-.54q-.18-.33-.41.04c-6.31 10.05-15.38-4.21-6.45-8.02 4.65-1.98 3.29 6.63 7.11 2.47q1.22-1.33-1.42-2.73c-6.79-3.59-13.43 2.54-12.05 9.83q.49 2.57 2.38 3.29m-37.39-7.55q.42-.65.66.09l2.67 8.1q.37 1.13.96.09l6.83-12.13q.13-.22.69-.76l1.08-1.02q.66-.62-.14-.62h-3.99q-.77 0-.02.4.72.4 1.02 1.03a1.24.79-50.6 0 1-.12.99l-4.22 7.76q-.31.56-.54-.09c-.48-1.31-4.36-9.61-1.1-9.34a.83.58 21.7 0 0 .48-.11q.49-.34-.27-.37-3.22-.13-6.51-.08-.46 0-.07.27 1.89 1.3 2.28 3.53a1.56.89-45 0 1-.26.95l-3.08 4.9q-.8 1.26-1.25-.14l-2.31-7.19a.98.91 56.6 0 1 .15-.9l.95-1.18q.51-.62-.15-.49-2.85.58-5.72 0-.9-.19-.13.49l1.37 1.18a2.1 1.2 24.4 0 1 .6.83l3.82 11.64q.44 1.33 1.14.24l5.18-8.07" vector-effect="non-scaling-stroke"/><path stroke="#f49993" d="M129.82 275.41q6.05 5.52 9.2 13.06a1.84.86 78.3 0 0 .61.82q1.37.84 1.07-1.03c-1.35-8.4-4.11-23.65-9.19-30.5q-1.65-2.22-3.88-.58-3.14 2.3-5.39 5.31-12.01 16.06-19.14 34.78c-.63 1.64-.46 3.95 1.32 1.59 5.87-7.78 13.56-19.18 22.35-23.63q1.83-.93 3.05.18" vector-effect="non-scaling-stroke"/><path stroke="#84a0ba" d="M21.59 278.58c2.96-3.27 5.42 1.43 6.89 3.29q1.17 1.48.73-.36-1.36-5.71-4.04-10.94-1.22-2.4-2.8-.18-5.76 8.13-8.82 17.63a.89.55-66.7 0 0 .13.87c.11.08 7.02-9.32 7.91-10.31" vector-effect="non-scaling-stroke"/><path stroke="#ef8186" d="M83.066 58.81a18.23 10.01 89.7 0 0 9.914-18.282A18.23 10.01 89.7 0 0 82.874 22.35a18.23 10.01 89.7 0 0-9.914 18.282A18.23 10.01 89.7 0 0 83.066 58.81" vector-effect="non-scaling-stroke"/><path stroke="#81c49e" d="M125.67 57.56q2.1.77 4.34.79 10.6.07 21.29-.27a.36.29-12.9 0 0 .35-.44l-12.39-22.15a.97.81 72.5 0 0-.76-.49h-13.75a.5.5 0 0 0-.5.5v20a2.2 2.18-79.9 0 0 1.42 2.06" vector-effect="non-scaling-stroke"/><path stroke="gray" d="M431.44 48.93c-.89 3.91 4.2 3.19 6.75 2.81a.65.47-5.3 0 0 .56-.49v-3.24a.72.69 87.8 0 0-.75-.72l-5.51.41a1.6 1.02-82.1 0 0-1.05 1.23m78.86-6.89q-.4 1.23-.29 2.46a.52.48 86.9 0 0 .49.48l5.51-.17a.97.93 13.8 0 0 .78-.45q2.24-3.68-3.56-3.93-2.36-.11-2.93 1.61" vector-effect="non-scaling-stroke"/><path stroke="#262525" d="M296.58 170.89c-2.66-2.29-.84 1.59.05.51a.36.36 39.3 0 0-.05-.51" vector-effect="non-scaling-stroke"/><path stroke="gray" d="M261.52 194.422a2.11 1.62 85.1 0 0 1.434-2.24 2.11 1.62 85.1 0 0-1.794-1.964 2.11 1.62 85.1 0 0-1.434 2.24 2.11 1.62 85.1 0 0 1.794 1.964m45.737-.422a1.77 1.43 90.1 0 0 1.433-1.768 1.77 1.43 90.1 0 0-1.427-1.772 1.77 1.43 90.1 0 0-1.433 1.767 1.77 1.43 90.1 0 0 1.427 1.773m10.493-1.75v.25a.36.22 4.5 0 1-.4.2c-2.44-.35-.4 2.7 1.06 1.1a.82.62-41.3 0 0 .18-.87q-.49-.77-.33-1.68a.72.6 14.4 0 0-.52-.72q-1.31-.39-1.51.7a.82.17 40.5 0 0 .45.58q.35.3.82.18a.25.2 84.7 0 1 .25.26" vector-effect="non-scaling-stroke"/><path stroke="#84a0ba" d="M170.62 260.6c.55-7.37-7.56-5-9.19.36a.42.36-80 0 0 .32.54l7.99-.01a.97.88-87.5 0 0 .88-.89m42.75-3.96q-1.71-1.6-4.06-.33-2.75 1.48-3.87 4.37a.61.43-75.7 0 0 .31.81l7.93-.04a1.07 1.05 2.7 0 0 1.05-.94q.25-2.36-1.36-3.87" vector-effect="non-scaling-stroke"/><path stroke="#8593a5" d="M417.45 258.01c1.34-3.75-4.85-3.98-7.02-.59q-.7 1.09.57 1.09l5.75-.01a.75.74-79.9 0 0 .7-.49" vector-effect="non-scaling-stroke"/></g><path fill="#fff" d="M0 0h550v302H0V0Zm61.18 52.98c5.53 10.32 18.94 12.04 29.3 10 14.05-2.76 19.31-16.68 16.02-29.55-3.33-13-14.32-16.72-26.57-15.79Q60.75 19.1 58.62 37.87a.71.61-86.4 0 1-.62.63H37.5a.75.49 0 0 0-.75.49V43a.75.5 0 0 0 .75.5h7.75a.52.43 89.3 0 1 .43.51l.23 9.82q.07 3.14-3.44 3.65c-8.02 1.15-19.05-1.76-21.5-10.2q-4.44-15.29 8.35-22.03c6.35-3.34 16.47-1.85 23.16-2.24a.82.48-3.2 0 0 .8-.53l-.31-3.73a.74.43-.9 0 0-.71-.4C39.62 18 20.9 16.46 11.13 26.14c-7.34 7.27-7.35 20.03-1.01 27.64 8.64 10.39 27.98 10.1 40.07 8.79 5.94-.64 9.88-2.96 9.83-9.29q-.03-2.51 1.16-.3Zm62.89-23.41-.09-9.06q-.02-2.26-1.97-2.24l-11.52.13a1.14 1 89.5 0 0-.99 1.15c.03 9.93.16 19.9-.2 29.81-.22 6.36.39 13.39 8.7 13.45q25.47.2 50.95.18a.63.52 11.4 0 0 .53-.28l17.6-31.41a.63.4-65.4 0 0-.12-.83q-2.36-.52-4.73-.03a1.43.42-64.4 0 0-.75.83l-14.35 25.58q-.68 1.22-1.28.07l-13.62-26.16a.96.91-12.4 0 0-.82-.49l-26.59-.31a.76.38.6 0 1-.75-.39ZM351.73 19.1q-5.09-.49-7.73 4.11-6.91 5.86-13.09 12.48a1.88 1.77-19.5 0 0-.45.87q-.98 5.32-.17 10.69-.43 2.15 1 3.46 8.07 7.43 15.86 14.56a4.74 4.71-18.9 0 0 2.41 1.17q6.19 1 10.73-.44.99.71 2.65.92l18.03-16.81a1.71 1.48 77.8 0 0 .46-.84q1.19-5.41.03-10.77.83-2.3-1.38-4.36-7.9-7.41-16.08-14.76a1.76 1.68 69.4 0 0-.87-.42q-5.74-1-11.4.14Zm47.59 18.14c.75-4.82 7.3-3.8 10.02-1.97a.85.39 35.8 0 0 .85.17l1.88-1.87a.63.44 37.5 0 0-.25-.8c-5.4-3.53-18.03-3.06-16.07 5.78q.6 2.68 3.34 3.61l8.93 3.05q2.47.84 1.47 3.28c-1.92 4.69-8.33 3.67-11.57 1.27a.83.41 38.4 0 0-.84-.18l-1.95 1.8a.69.48 38.8 0 0 .26.88q5.51 3.93 11.94 2.34c6.49-1.61 8.82-10.33 1.33-12.69q-4.08-1.28-8.13-2.67a1.82 1.82-76.3 0 1-1.21-2ZM463.5 34h7a.86.44.6 0 0 .85-.42l.13-2.33a.72.47 1 0 0-.73-.5H451a.5.5 0 0 0-.5.5v2.25a.5.5 0 0 0 .5.5h7.5a.75.46-90 0 1 .46.75l-.16 19a.75.7-79.5 0 0 .43.68q4.12 1.73 3.64-2.58-.65-5.72.16-17.29a.6.46-87.4 0 1 .47-.56Zm-38.75 18.25a.73.61-15 0 0-.97-.45c-4.54 1.75-3.03-8.55-3.01-10.61a.77.74-79.9 0 1 1-.73q3.66 1.36 2.55-2.26a.66.5 76.9 0 0-.58-.48l-2.48.28a.73.46 88.1 0 1-.51-.75V33.5a.49.36 81.7 0 0-.5-.51l-2.95 1.3a1.15.37 88.3 0 0-.29 1.01q-.07 6.94.1 13.9.16 6.73 6.6 5.6a1.08.82 1.2 0 0 .77-.56q.37-.96.27-1.99Zm100.34-11.86c-4.76 10.01 12.47 4.51 9.98 10.3a1.38 1.26-1.1 0 1-.74.7q-4.2 1.66-7.9-.81a.77.56 37.5 0 0-.86-.02l-1.76 1.76a.5.43 37.3 0 0 .15.72q4.64 2.77 9.79 1.77c4.88-.95 8-6.28 2.52-9.43-2.19-1.25-5.97-.15-7.64-1.73-3.75-3.56 4.91-3.37 6.67-2.54a1.14.43 29.7 0 0 .96.15q1.05-.71 1.69-1.83a.65.5 26.9 0 0-.37-.77q-4.67-2.15-9.6-.73-2 .58-2.89 2.46Zm-86.89 4.14c-2.51.43-5.45-.18-7.52.67-3.23 1.33-4.24 5.31-1.92 7.99 2.59 3 9.42 1.7 13.21.61a.68.66-8.1 0 0 .49-.64c.07-5.04 2.08-14.14-4.66-15.46q-4.77-.92-8.74 1.19a.93.49-28.6 0 0-.59.88q.66 1.19 1.88 1.88a.94.51-40 0 0 .83-.17c2.44-1.6 8.08-2.31 7.59 2.46a.7.68-1.8 0 1-.57.59Zm12.79-3.62 3.78-.32a1 .62-.1 0 0 .84-.52q.26-1.03-.15-2.07a.78.78-10.2 0 0-.71-.49q-3.83-.13-7.5 1.01a.78.72 81.9 0 0-.5.73v15a.5.5 0 0 0 .5.5H450a.5.5 0 0 0 .5-.5v-12.5a.86.53 88.7 0 1 .49-.84Zm20.26-3.09a.31.31 0 0 0-.31-.31h-3.12a.31.31 0 0 0-.31.31v16.62a.31.31 0 0 0 .31.31h3.12a.31.31 0 0 0 .31-.31V37.82Zm9.1 3.14q4.29-1.77 6.79 1.61a1.37.15-89.2 0 1 .11 1.18v10.5a.5.5 0 0 0 .5.5h3a.49.38-90 0 0 .38-.49l-.1-11.51a1.99 1.74-12.8 0 1 1.24-1.7q2.17-.9 4.5-.37 1.73.39 1.73 2.32v11.25a.5.5 0 0 0 .5.5l2.74-.01a.53.53-87.7 0 0 .53-.49q.41-5.75-.04-11.47c-.53-6.73-7.93-6.03-12.28-3.91a.94.93-42.8 0 1-.88-.03c-3.56-1.99-7.73-1.7-12.58-.2a.73.61-10.2 0 0-.51.61l-.24 15a.51.49.6 0 0 .51.5h3a.5.5 0 0 0 .5-.5V41.5a.88.37-19.1 0 1 .6-.54ZM518.26 38c-10.91-2.89-13.92 4.14-11.47 13.29q.57 2.12 2.53 2.88 5.62 2.18 10.7-.86a.73.48-35.9 0 0 .34-.91l-1.8-1.71a.85.54-41.1 0 0-.94.14c-2.35 1.9-8.24 2.03-7.54-2.49a.61.61 3.9 0 1 .59-.51c4.59-.18 12.27.35 10.42-6.96q-.57-2.27-2.83-2.87ZM324.94 224.56c-33.89.51-69.62-4.23-100.93-17.82-19.22-8.35-46.16-26.5-40.06-51.58 6.38-26.17 44.93-41.21 67.99-46.98q35.3-8.83 70.96-7.88c.56.02 2.17-.36 1.7-1.13a1.26.81-4.6 0 0-.84-.45c-35.39-4.55-71.88-1.66-105.31 11.2-19.24 7.4-40.56 21.5-46.92 41.13-4.17 12.87.15 27.21 8.92 37.26 31.93 36.59 100.2 42.88 144.51 36.31q.49-.07-.02-.06Zm-94.19-68.52q-6.92 1.1-13.9 1.25c-.44.01-1.55.58-.28.85q4.22.89 13.41.82c12.04.41 72.3-.93 76.65-14.61q1.38-4.36-3.78-7.14-3.09-2.35-7.1-3.67-3.54-1.89-7.5-2.25l-2.5-.75-1.75-.5-4.98-.84q-.62-.1-.04.19c9.88 4.98-12.03 15.29-14.6 16.42q-16.19 7.11-33.63 10.23Zm5 20.17c-2.98 3.79-7.66 3.48-12 3.75q-.65-.41-.33-.86a1.61.83-42.6 0 0 .31-.85l-.24-9.25a.29.23-19 0 0-.42-.15c-.59.34-4.36-.11-5.57.19l-1.38-.43a.43.31-84.2 0 0-.4.45l-.05 12.94a1.61 1.35 88.9 0 0 1.42 1.63c6.06-.34 11.13.16 18.13-1.35 11.3-4.57 11.53-14.48.97-18.85-5.98-2.48-13.51-2.24-19.89-2.17a.56.49-.6 0 0-.55.49v2a.53.5-1.1 0 0 .55.5c8.5-.26 24.51-.94 19.45 11.96Zm36.79-2.71-.25 3.75c-1 4.71 1.47 6.28 5.82 6.26q7.81-.03 15.65 0a.74.5 0 0 0 .74-.5l.01-1.26q0-.48-.67-.08c-2.37 1.4-13.14.73-17.84.91q-1.79.07-2.79-2.08l4.36.32a.45.38 87.8 0 0 .39-.5q-.14-1.2 1-1.57.45.69.17 1.4a.75.69-52.6 0 0 .06.66q.11.17.31.19a.72.4-89 0 0 .43-.75l-.16-9.18a.84.72 89.6 0 1 .72-.85l12.76-.09a.79.43 71.6 0 1 .53.49l3.01 6.88.93 3.77q.26 1.07.37.04l.07-.63q.07-.6.65-.04c1.23 1.17 4.16-.41 1.64-1.08a1.83.91-31.8 0 0-.96.09q-1.25.41-1.45-.65l2.19-.17a.33.33-15.3 0 0 .27-.47q-1.57-3.25-2.66-6.67-.33-1.06-.28-1.69.04-.58.34.05l4.93 10.66a1.01.53 69.7 0 0 .71.64c.97-.06-4.07-11.51-4.46-12.54a.72.56 76.7 0 0-.57-.46l-18.44.44a.45.32-89.8 0 1-.33-.46l.12-6.08a.61.44.4 0 0-.61-.45l-6.76-.01a.48.44 88.2 0 0-.44.51l.49 11.2Zm-10.25 3q.21 1.66-.56 3.77l-14.08.39a.34.32 79.4 0 0-.29.45q.25.71-.11 1.35-.5.3-.98.19a.99.7 80.7 0 1-.58-.59q-1.04-2.69-.95.72a.74.73-.8 0 0 .74.71q10.13.05 20.2-.03 3.46-.03 4.82-4.17c1.77-2.83-1.24-5.77-3.51-6.95-2.91-1.51-8.94-.94-12.45-1.09q-2.8-3.63.12-6.6a1.32 1.01 16.4 0 1 .84-.32l14.26-.22a.75.36-.6 0 0 .74-.37v-1.23a.79.35-1.2 0 0-.8-.34q-9.1.16-18.19.06c-8.17-.1-9.07 10.26-.84 11.62q2.25.37 9.26.28 2.03-.02 2.36 2.37Zm50.7-8.9q-.85.42-.54 1.28a1.28.51 13.5 0 0 .79.56q2.07.74 1.58-1.23a1.36 1.12-21 0 0-1.83-.61Zm-2.44.69c-1.78-.75-5.98 12.87-6.22 13.63a.73.73-83 0 1-.65.51c-.12 0-7.42-.66-5.11 1.09a1.1 1.06-33.1 0 0 .92.18q1.89-.49 3.75.09a1.46 1.38-69.9 0 0 1.71-.85l5.83-13.93a.58.49-67.3 0 0-.23-.72Zm-22.15 20.92q.36-2.19-.69-1.54a1.04.67 79.5 0 0-.34.82l.05 5.01a1.56.82-77.8 0 0 .26.93c1.5 1.74-.79-5.71 2.92-3.59a1.09 1-78.2 0 1 .5.84l.13 2.32a.84.47-87.2 0 0 .34.69l.17.06a.67.34-88.5 0 0 .42-.77c-.14-2.12-.07-5.17-3.37-4.43a.32.31-2.7 0 1-.39-.34Zm-33.56 4.7q-.26-.67-.92-.5-.79.19.05.9 2.64 2.23 4.03-.82a.71.51-64.8 0 0-.16-.85l-2.53-1.18a.68.55 27.4 0 1-.37-.84q.36-.6 2.24-.04.92.28.29-.44-1.5-1.71-3.39 0a.77.76-31.7 0 0-.2.83c.71 1.85 4.66 2.12 2.3 3.49a1 .91 64.8 0 1-1.34-.55Zm28.23-.47q-.63-1.8.74-3.14a.62.62-44.3 0 1 .87.01l.88.88q.51.5.46-.2-.07-1.17-1.22-1.58a1.27 1.18-47 0 0-.98.07c-2.17 1.05-2.55 4.01-.57 5.32 1.66 1.1 3.55-1.36 2.73-1.51a.82.75-68.5 0 0-.8.39q-.47.78-1.36.5a1.22 1.18 88.6 0 1-.75-.74Zm-21.802 1.808a2.92 2.46 92.2 0 0 2.57-2.824 2.92 2.46 92.2 0 0-2.346-3.012 2.92 2.46 92.2 0 0-2.57 2.824 2.92 2.46 92.2 0 0 2.346 3.012Zm9.082-4.318.42 3.32a.63.4-89.2 0 0 .3.48q.26.09.44-.13a1.14.31 78.1 0 0 .05-.91q-.21-1.49.22-2.94a.63.61-76.4 0 1 .7-.44q2.25.45 1.18 2.7a1.48.71 61.4 0 0 .05 1q.14.41.42.58a.44.37-71.1 0 0 .56-.34q.45-2.31-.58-4.32a1.2.38 8.3 0 0-.86-.42q-.94-.2-1.43.56a.76.44 31.5 0 1-.88-.02q-1.96-1.22-3.71.51-.76.75.17 3.74.13.4.41.64.37.31.42-.69c.04-.93-.41-4.41 1.5-3.88a.89.57 9.6 0 1 .62.56Zm5.85-.02q-.58 5.23 4.07 3.72a.7.55-13.8 0 0 .5-.64l-.3-2.23a1.24.41 77.2 0 1 .09-.94q.48-.58-.13-1.01a.37.34-66.2 0 0-.53.23c-.19.76.25 5.8-2.06 3.9-.91-.75-.92-2.18-.67-3.25a1.11.75-65.3 0 0-.15-.9q-.62-.67-.82 1.12Zm24.73-.26c2.87-1.28.46 4.66 2.36 3.97a.71.57 77.3 0 0 .36-.73c-.23-1.49.41-4.69-2.16-4.42a1.19.96 9.6 0 0-.82.46q-.67 1.07-1.34 0a.98.8 68 0 0-.84-.46l-2.49.28a.57.5-3.9 0 0-.5.5V194a.85.56-81.2 0 0 .32.69q.2.1.43.06a.78.59 86.7 0 0 .5-.75v-2.5a.75.5-90 0 1 .5-.75h1.25a.75.5 90 0 1 .5.75v2.5a.72.55-86.9 0 0 .47.69q.79.12.89-3.18a.98.97 78.9 0 1 .57-.86Zm6.335 4.49a2.87 2.55 89.9 0 0 2.545-2.874 2.87 2.55 89.9 0 0-2.555-2.866 2.87 2.55 89.9 0 0-2.545 2.874 2.87 2.55 89.9 0 0 2.555 2.866Zm5.725-4.15q.69-.18 1.02-.72.4-.64-.57-.6l-1.68.07a.79.76-1.2 0 0-.76.76l-.01 3.5a1.21 1 20.4 0 0 .52.9c.85.6.87-2.96.94-3.35a.76.67-4.6 0 1 .54-.56Zm4.324 4.15a2.84 2.43 88.7 0 0 2.365-2.895 2.84 2.43 88.7 0 0-2.493-2.784 2.84 2.43 88.7 0 0-2.365 2.894 2.84 2.43 88.7 0 0 2.493 2.784Zm90.395 23.302a12.46 10.8.7 0 0-12.327-10.951 12.46 10.8.7 0 0-12.591 10.647 12.46 10.8.7 0 0 12.327 10.951 12.46 10.8.7 0 0 12.591-10.647ZM138.66 234.26a8.35 8.35 0 0 0-8.35-8.35 8.35 8.35 0 0 0-8.35 8.35 8.35 8.35 0 0 0 8.35 8.35 8.35 8.35 0 0 0 8.35-8.35Zm237.46 6.13-22.9 28.57q-.77.97.22.23l46.23-34.03q.53-.4-.1-.49l-45.76-6.96q-1.53-.23-.22.44l22.35 11.47a.52.5 32.8 0 1 .18.77Zm-12.27 1.79c-3.33 7.08-6.56 14.15-9.99 21.16q-.22.44.12.39a.57.46 11.7 0 0 .33-.17l18.37-22.63a.56.48-55.3 0 0-.09-.8l-17.79-9.42q-1.37-.73-.38.36l9.28 10.23a.83.78 37.3 0 1 .15.88Zm-233.19 5.34q-1.92-.19-3.51-1.68l-14.41-13.58a1.07.9 56.1 0 0-.94-.27q-.65.18-.26.95 6.29 12.26 16.57 22.03 1.66 1.58 3.51.21 5.66-4.21 9.96-11.11c.66-1.06-.53-1.21-1.19-.86-2.02 1.08-7.68 4.51-9.73 4.31Zm-112.55 15.3c1.21-6.74 2.12-17.54 10.42-18.42 6.64-.71 6.42 5.47 5.34 10.13-1.17 5.09-1.81 11.68-6.91 14.47a.74.44-28.3 0 0-.44.74l1.75 3.22a.86.36-29.3 0 0 .93-.11q5.91-3.42 8.05-11.09c2.04-7.29 5.54-18.13-2.53-21.32-8.66-3.44-16.63 2.72-19.28 11.23-2.13 6.83-5.49 18.46 2.09 21.95a.79.64 27.8 0 0 .92-.18l2.31-3.44a.77.43 36.5 0 0-.35-.78q-3.03-2.34-2.3-6.4Zm54.42-18.81c-1.27-.03-1.91-.54-3.25.06a.91.87 83.6 0 0-.52.68l-.53 3.25a.7.28 12.4 0 0 .61.41q4.79 1.12 4.22-3.92a.55.54-2.4 0 0-.53-.48ZM100.76 265l2.98 8a1.11.65 74.8 0 0 .76.75l4 .01a.5.46 77.8 0 0 .41-.69l-4.62-11.34a.98.48 63.8 0 1 0-.93l7.74-7.01q1.32-1.19-.32-1.31c-1.88-.14-3.47.01-4.97 1.4q-4.18 3.87-8.32 7.8-.87.81-.58-.41l3.86-16.28a.81.74-82.6 0 0-.7-1h-2.75a.76.66-82.3 0 0-.66.58l-6.53 28.44a.57.55-78.7 0 0 .44.68q1.98.36 3.8-.29a1.05.35 87.9 0 0 .28-.94q-.02-5.41 4.65-7.94a.61.29 67.9 0 1 .53.48Zm78.43 8.06q3.21 2.23 4.86.67 1.19-1.13 1.18-3.01a.55.48-6.1 0 0-.64-.45c-2.49.43-3.09-.96-2.59-3.12q2.56-11.17 5.02-22.39a.65.35-80.8 0 0-.26-.76l-3.45.04a1.06.31-78 0 0-.49.91q-2.7 11.81-5.26 23.55-.66 2.98 1.63 4.56Zm11.7.07q2.1.95 4.35.57a1.03.12-9.2 0 0 .87-.25q2.32-3.21-1.14-3.35a1.63 1.58 7.1 0 1-1.55-1.92c1.67-7.37 3.11-14.77 5.02-21.73q1.03-3.75-3.24-2.34a.99.88 88.7 0 0-.6.71l-5.59 24.43q-.63 2.74 1.88 3.88Zm292.655-25.748a1.77 1.5-13 0 0-2.062-1.064 1.77 1.5-13 0 0-1.388 1.86 1.77 1.5-13 0 0 2.062 1.064 1.77 1.5-13 0 0 1.388-1.86Zm33.675 19.108.93-8.56q.21-1.92 2.8-2.22 3.66-.43 3.74 2.1c.04 1.53.36 9.08-2.71 9.98a.69.45-7.9 0 0-.46.4q-.09.37.47.28c.85-.14 7.16-.18 7.18-.24a.62.24 27.4 0 0-.42-.48l-1.45-.8a1.09.59-80.5 0 1-.32-.94c.23-2.96 1.25-7.79.4-10.16-1.5-4.19-5.89-1.4-8.53-.18q-.6.28-.53-.42l.94-8.5a.47.41 86.9 0 0-.51-.53l-4.68 1.35q-.56.16.08.51l1.49.82a.95.64-77.5 0 1 .33.85L514.26 266a1.25 1.2-16.2 0 1-.5.87l-1.63 1.22q-.73.54.12.4 3.34-.54 6.68-.01 2.06.32.27-.68-.67-.38-1.38-.63a.84.56 14.8 0 1-.6-.68Zm-365.53-10.64 2.56.19a.91.6 13.4 0 0 .75-.27q2.7-4.02-1.98-3.09a.76.68-87.3 0 1-.77-.94l1.09-4.42a.51.41-80.1 0 0-.35-.62l-3.24-.21a.73.63-81.8 0 0-.67.58l-1.09 4.93a.6.5-81.1 0 1-.54.48q-2.8-.18-2.6 2.79a.71.49 88.4 0 0 .48.66l1.18.06a.61.49-81.6 0 1 .43.73c-1.03 4.57-7.03 18.62 3.63 17a.99.48-2.4 0 0 .75-.4q.5-1.24.43-2.57a.55.49 88.1 0 0-.49-.52q-1.4.01-2.47-.74a1.02.87-67.5 0 1-.32-1l2.68-12.06a.72.46-79.6 0 1 .54-.58Zm247.44-.04c-.28 2.71-2.48 12.09 1.33 12.66q2.99.45 4.43-2.38.21-.41-.25-.23l-2.18.85a.94.91 82.1 0 1-1.24-.97l.81-9.74a.81.44-85.9 0 1 .48-.75l2.49-.01a1.09.54 5.9 0 0 .88-.33q.44-.82-2.79-1.1a.82.81-80.4 0 1-.72-1.02q1.51-5.84-1.27-1.62c-.9 1.38-2.7 2.53-4.03 3.5q-.48.36.09.45l1.53.21a.51.42 7.6 0 1 .44.48Zm90.54 12.5q3 .65 4.72-1.91c1.23-1.84-2.19 1.07-3.17-.21-.9-1.15.39-8.49.59-10.28a.73.42-85.4 0 1 .45-.66l2.24-.01a1.73 1.47-58.8 0 0 .93-.31q.62-.43 0-.87a.98.03 3.1 0 0-.93-.08l-2.33-.12a.82.33-73.2 0 1-.09-.97q.48-1.41.24-2.96-.14-.87-.58-.16-1.85 3.03-4.96 4.72-.71.39.14.58l1.53.35a.55.51 9.9 0 1 .43.56l-1.08 9.76q-.23 2.11 1.87 2.57ZM161 264.5h12.25a.9.77-77 0 0 .75-.55c6.26-15.02-16.31-16.3-17.72 2.3-.72 9.41 9.8 9.19 15.12 5.11a.91.74-28.2 0 0 .36-.86q-.4-1.46-1.73-2.05a1.13.53-44.3 0 0-.93.32c-3.31 2.72-10.15 2.07-8.67-3.73a.7.55-81.7 0 1 .57-.54Zm-99.76-9.82q1.03-3.46-3.45-2.01a.88.86-3.6 0 0-.58.65q-2.34 10.95-3.18 13.43c-1.41 4.16-9.58 5.28-8.13-.97q1.43-6.2 2.77-12.5a.66.48-82.5 0 0-.43-.78h-2.99a.88.69-81.1 0 0-.71.67c-.98 3.95-4.22 14.14-2.86 17.75 1.54 4.12 7.07 3.52 10.42 1.55a.62.46 56.8 0 1 .7.26q1.24 1.82 3.67.85a.9.57-87.2 0 0 .43-.61c1.46-6.05 2.56-12.34 4.34-18.29Zm9.963-1.495a.27.27 0 0 0-.203-.323l-3.45-.79a.27.27 0 0 0-.324.202l-4.769 20.821a.27.27 0 0 0 .203.323l3.45.79a.27.27 0 0 0 .324-.202l4.769-20.821Zm18.357.355c-9.13-3.56-15.05 2.66-16.38 11.14-1.54 9.77 7.7 11.56 13.98 6.92a.76.46-37.7 0 0 .33-.85l-1.8-2.19a.79.43-40.5 0 0-.9.19q-3.22 2.84-6.63.38a1.47 1.43-78.8 0 1-.56-.86c-1.26-5.61 3.32-16.37 10.04-10.63a.66.58 44.4 0 0 .81.04l1.8-1.51q1.92-1.62-.69-2.63ZM205 264.5h12.25a.8.73 10.5 0 0 .72-.45c5.79-14.06-12.52-15.35-16.46-3.53-1.23 3.68-2.41 8.55.49 11.52 3.44 3.53 9.93 1.89 13.44-.71a.91.6-33.3 0 0 .39-.9q-.54-1.18-1.56-1.95a.78.6-46 0 0-.86.13c-3.35 2.96-10.17 2.49-8.96-3.56a.68.53-83 0 1 .55-.55Zm24.3-10.83q-1.14-2.05-3.56-.84a.96.16-25.1 0 0-.7.48l-4.5 19.7a.59.49-83.1 0 0 .46.72l3.32-.1a.91.33-78.1 0 0 .46-.75c1.14-4.84 2.1-20.06 10.7-15.78a.82.63 34.6 0 0 .85-.04l2.89-2.69a.49.44 37.4 0 0-.14-.74q-4.75-2.58-9.28.44a.57.24 61 0 1-.5-.4Zm154.63 2.03q.15-.92-.29-1.65a.79.73-24.2 0 0-.9-.3l-3.73 1.24q-.71.23-.17.59.51.33 1.14.43a.63.49 4.9 0 1 .53.49q.05 5.06-1 10a1.22.83-15.1 0 1-.58.68l-1.27.72q-.85.47.22.41 3.29-.19 6.56-.1c2.12.06-1.19-.9-1.39-1.08a1.07 1.01 24.3 0 1-.36-.88l.85-8.24a1.21.78 87.6 0 1 .54-.92l3.69-1.59q2.75-1.19 2.51 2.49c-.18 2.79.26 9.19-3.24 9.97q-.57.13-.14.42c.24.16 6.04-.1 7.15.08.27.04.72-.11.62-.39a.91.27 16.8 0 0-.6-.4l-1.26-.48a1.01.49-83.6 0 1-.32-.92c.18-3.68 3.15-13.13-3.76-12.51-1.69.15-2.97 1.39-4.47 2.2q-.41.21-.33-.26Zm27.07 3.8 9.56-.06a.61.61-89.5 0 0 .6-.59c.12-3.2-2.11-5.08-5.28-5.07-11.12.01-11.63 16.14-1.32 14.86q4.65-.58 5.89-5.2.13-.48-.18-.08c-4.12 5.34-12.37 1.8-10.05-3.6a.91.35 2.4 0 1 .78-.26Zm17.47-4.02.29-1.23a.46.43 89.1 0 0-.53-.56l-4.47 1.34q-1.2.36-.19.67l1.5.46a.64.54 11.9 0 1 .46.59l-.92 9.32a1.13.49-89.4 0 1-.4.9l-2.22 1.01a.21.17-27.3 0 0-.12.26c.04.07 6.13.1 7.56.23q.38.03.58-.17a.43.31 29.4 0 0-.26-.56l-1.43-.57a.89.82 10.3 0 1-.55-.73c-.17-2.86.01-12.74 4.75-10 3.52 2.03 3.25-5.01-1.15-2.15q-1.14.74-2.37 1.41-.67.37-.53-.22Zm16.11-1.44c-4.14-1.19-10.32 1.24-7.16 6.29a1.73 1.44.2 0 0 .73.61c1.98.89 6.74 2.68 5.99 5.22a1.23 1.05-8.4 0 1-.61.7q-5.24 2.57-7.2-3.17-.2-.57-.28.01l-.58 4.05a.5.44 5.4 0 0 .48.51q1.21.07 4.3.53c3.19.49 9.12-3.12 5.71-6.91-1.57-1.74-6.6-2.61-7.23-4.73-.83-2.76 5.9-4.05 7.12 1.16q.16.69.26.02l.63-4.04a.42.41-2.1 0 0-.51-.46l-.71.17q-.61.13-.94.04Zm34.4 2.51q.42 4.8-.77 9.81a1.54 1.53-88.3 0 1-1.24 1.17q-.78.14-1.04.51-.44.64.33.51 3.36-.53 6.73.02a.63.55 18 0 0 .64-.27c.27-.51-1.46-.95-1.84-1.23a.94.92-69 0 1-.36-.83l1.25-12a.49.38 88.5 0 0-.46-.56l-4.97 1.35q-.82.23.01.47l1.14.34a.81.8 6.4 0 1 .58.71Zm20.4 11.24q7.53 2.85 10.86-4.34a.63.61 43.9 0 0-.02-.54q-.18-.33-.41.04c-6.31 10.05-15.38-4.21-6.45-8.02 4.65-1.98 3.29 6.63 7.11 2.47q1.22-1.33-1.42-2.73c-6.79-3.59-13.43 2.54-12.05 9.83q.49 2.57 2.38 3.29Zm-37.39-7.55q.42-.65.66.09l2.67 8.1q.37 1.13.96.09l6.83-12.13q.13-.22.69-.76l1.08-1.02q.66-.62-.14-.62h-3.99q-.77 0-.02.4.72.4 1.02 1.03a1.24.79-50.6 0 1-.12.99l-4.22 7.76q-.31.56-.54-.09c-.48-1.31-4.36-9.61-1.1-9.34a.83.58 21.7 0 0 .48-.11q.49-.34-.27-.37-3.22-.13-6.51-.08-.46 0-.07.27 1.89 1.3 2.28 3.53a1.56.89-45 0 1-.26.95l-3.08 4.9q-.8 1.26-1.25-.14l-2.31-7.19a.98.91 56.6 0 1 .15-.9l.95-1.18q.51-.62-.15-.49-2.85.58-5.72 0-.9-.19-.13.49l1.37 1.18a2.1 1.2 24.4 0 1 .6.83l3.82 11.64q.44 1.33 1.14.24l5.18-8.07Zm-332.17 15.17q6.05 5.52 9.2 13.06a1.84.86 78.3 0 0 .61.82q1.37.84 1.07-1.03c-1.35-8.4-4.11-23.65-9.19-30.5q-1.65-2.22-3.88-.58-3.14 2.3-5.39 5.31-12.01 16.06-19.14 34.78c-.63 1.64-.46 3.95 1.32 1.59 5.87-7.78 13.56-19.18 22.35-23.63q1.83-.93 3.05.18Zm-108.23 3.17c2.96-3.27 5.42 1.43 6.89 3.29q1.17 1.48.73-.36-1.36-5.71-4.04-10.94-1.22-2.4-2.8-.18-5.76 8.13-8.82 17.63a.89.55-66.7 0 0 .13.87c.11.08 7.02-9.32 7.91-10.31Z"/><path fill="#de020c" d="M61.18 52.98q-1.19-2.21-1.16.3c.05 6.33-3.89 8.65-9.83 9.29-12.09 1.31-31.43 1.6-40.07-8.79-6.34-7.61-6.33-20.37 1.01-27.64 9.77-9.68 28.49-8.14 41.13-7.79a.74.43-.9 0 1 .71.4l.31 3.73a.82.48-3.2 0 1-.8.53c-6.69.39-16.81-1.1-23.16 2.24q-12.79 6.74-8.35 22.03c2.45 8.44 13.48 11.35 21.5 10.2q3.51-.51 3.44-3.65l-.23-9.82a.52.43 89.3 0 0-.43-.51H37.5a.75.5 0 0 1-.75-.5v-4.01a.75.49 0 0 1 .75-.49H58a.71.61-86.4 0 0 .62-.63q2.13-18.77 21.31-20.23c12.25-.93 23.24 2.79 26.57 15.79 3.29 12.87-1.97 26.79-16.02 29.55-10.36 2.04-23.77.32-29.3-10Zm21.886 5.83a18.23 10.01 89.7 0 0 9.914-18.282A18.23 10.01 89.7 0 0 82.874 22.35a18.23 10.01 89.7 0 0-9.914 18.282A18.23 10.01 89.7 0 0 83.066 58.81Z"/><path fill="#03883c" d="m124.82 29.96 26.59.31a.96.91-12.4 0 1 .82.49l13.62 26.16q.6 1.15 1.28-.07l14.35-25.58a1.43.42-64.4 0 1 .75-.83q2.37-.49 4.73.03a.63.4-65.4 0 1 .12.83l-17.6 31.41a.63.52 11.4 0 1-.53.28q-25.48.02-50.95-.18c-8.31-.06-8.92-7.09-8.7-13.45.36-9.91.23-19.88.2-29.81a1.14 1 89.5 0 1 .99-1.15l11.52-.13q1.95-.02 1.97 2.24l.09 9.06a.76.38.6 0 0 .75.39Zm.85 27.6q2.1.77 4.34.79 10.6.07 21.29-.27a.36.29-12.9 0 0 .35-.44l-12.39-22.15a.97.81 72.5 0 0-.76-.49h-13.75a.5.5 0 0 0-.5.5v20a2.2 2.18-79.9 0 0 1.42 2.06Z"/><path fill="#f58c25" d="m381.46 38.5-11.16 4.13q-5.17-1.34-9.71-3.77a1.72 1.66.5 0 1-.69-.68q-1.97-3.54-2.95-8.38-.16-.8-1.16-.3.51-1.58-.79-2.59-.78-4.16-3.27-7.81 5.66-1.14 11.4-.14a1.76 1.68 69.4 0 1 .87.42q8.18 7.35 16.08 14.76 2.21 2.06 1.38 4.36Z"/><path fill="#0a264b" d="M351.73 19.1q2.49 3.65 3.27 7.81l-5.23-6.06a1.37 1.27-50.1 0 0-2.11.27q-1.3 2.09-3.66 2.09 2.64-4.6 7.73-4.11Z"/><path fill="#1078bd" d="M355 26.91q1.3 1.01.79 2.59c-2.12 9.46-5.56 10.48-14.04 13.04q-.97.02-1.5.92c-3.71 1.21-6.44.93-9.96 3.79q-.81-5.37.17-10.69a1.88 1.77-19.5 0 1 .45-.87q6.18-6.62 13.09-12.48 2.36 0 3.66-2.09a1.37 1.27-50.1 0 1 2.11-.27l5.23 6.06Z"/><ellipse fill="#fff" rx="18.23" ry="10.01" transform="rotate(89.7 21.088 61.993)"/><path fill="#fff" d="m370.3 42.63-9.73 4.25a1.64 1.21-80.1 0 0-.69.66q-2.48 4.39-3.67 9.21-1.49-3.43-2.93-6.89c-1.83-4.4-6.94-6.08-11.28-6.65l-.25-.67c8.48-2.56 11.92-3.58 14.04-13.04q1-.5 1.16.3.98 4.84 2.95 8.38a1.72 1.66.5 0 0 .69.68q4.54 2.43 9.71 3.77Z"/><path d="M399.32 37.24a1.82 1.82-76.3 0 0 1.21 2q4.05 1.39 8.13 2.67c7.49 2.36 5.16 11.08-1.33 12.69q-6.43 1.59-11.94-2.34a.69.48 38.8 0 1-.26-.88l1.95-1.8a.83.41 38.4 0 1 .84.18c3.24 2.4 9.65 3.42 11.57-1.27q1-2.44-1.47-3.28l-8.93-3.05q-2.74-.93-3.34-3.61c-1.96-8.84 10.67-9.31 16.07-5.78a.63.44 37.5 0 1 .25.8l-1.88 1.87a.85.39 35.8 0 1-.85-.17c-2.72-1.83-9.27-2.85-10.02 1.97Zm63.71-2.68q-.81 11.57-.16 17.29.48 4.31-3.64 2.58a.75.7-79.5 0 1-.43-.68l.16-19a.75.46-90 0 0-.46-.75H451a.5.5 0 0 1-.5-.5v-2.25a.5.5 0 0 1 .5-.5h19.75a.72.47 1 0 1 .73.5l-.13 2.33a.86.44.6 0 1-.85.42h-7a.6.46-87.4 0 0-.47.56Zm-38.28 17.69q.1 1.03-.27 1.99a1.08.82 1.2 0 1-.77.56q-6.44 1.13-6.6-5.6-.17-6.96-.1-13.9a1.15.37 88.3 0 1 .29-1.01l2.95-1.3a.49.36 81.7 0 1 .5.51v3.75a.73.46 88.1 0 0 .51.75l2.48-.28a.66.5 76.9 0 1 .58.48q1.11 3.62-2.55 2.26a.77.74-79.9 0 0-1 .73c-.02 2.06-1.53 12.36 3.01 10.61a.73.61-15 0 1 .97.45Z"/><path fill="#fff" d="M125.67 57.56a2.2 2.18-79.9 0 1-1.42-2.06v-20a.5.5 0 0 1 .5-.5h13.75a.97.81 72.5 0 1 .76.49l12.39 22.15a.36.29-12.9 0 1-.35.44q-10.69.34-21.29.27-2.24-.02-4.34-.79Z"/><path d="M525.09 40.39q.89-1.88 2.89-2.46 4.93-1.42 9.6.73a.65.5 26.9 0 1 .37.77q-.64 1.12-1.69 1.83a1.14.43 29.7 0 1-.96-.15c-1.76-.83-10.42-1.02-6.67 2.54 1.67 1.58 5.45.48 7.64 1.73 5.48 3.15 2.36 8.48-2.52 9.43q-5.15 1-9.79-1.77a.5.43 37.3 0 1-.15-.72l1.76-1.76a.77.56 37.5 0 1 .86.02q3.7 2.47 7.9.81a1.38 1.26-1.1 0 0 .74-.7c2.49-5.79-14.74-.29-9.98-10.3Zm-86.32 3.55c.49-4.77-5.15-4.06-7.59-2.46a.94.51-40 0 1-.83.17q-1.22-.69-1.88-1.88a.93.49-28.6 0 1 .59-.88q3.97-2.11 8.74-1.19c6.74 1.32 4.73 10.42 4.66 15.46a.68.66-8.1 0 1-.49.64c-3.79 1.09-10.62 2.39-13.21-.61-2.32-2.68-1.31-6.66 1.92-7.99 2.07-.85 5.01-.24 7.52-.67a.7.68-1.8 0 0 .57-.59Zm-7.33 4.99c-.89 3.91 4.2 3.19 6.75 2.81a.65.47-5.3 0 0 .56-.49v-3.24a.72.69 87.8 0 0-.75-.72l-5.51.41a1.6 1.02-82.1 0 0-1.05 1.23Zm19.06-7.18v12.5a.5.5 0 0 1-.5.5h-2.75a.5.5 0 0 1-.5-.5v-15a.78.72 81.9 0 1 .5-.73q3.67-1.14 7.5-1.01a.78.78-10.2 0 1 .71.49q.41 1.04.15 2.07a1 .62-.1 0 1-.84.52l-3.78.32a.86.53 88.7 0 0-.49.84Z"/><rect width="3.74" height="17.24" x="467.51" y="37.51" rx=".31"/><path d="M479.75 41.5v12.75a.5.5 0 0 1-.5.5h-3a.51.49.6 0 1-.51-.5l.24-15a.73.61-10.2 0 1 .51-.61c4.85-1.5 9.02-1.79 12.58.2a.94.93-42.8 0 0 .88.03c4.35-2.12 11.75-2.82 12.28 3.91q.45 5.72.04 11.47a.53.53-87.7 0 1-.53.49l-2.74.01a.5.5 0 0 1-.5-.5V43q0-1.93-1.73-2.32-2.33-.53-4.5.37a1.99 1.74-12.8 0 0-1.24 1.7l.1 11.51a.49.38-90 0 1-.38.49h-3a.5.5 0 0 1-.5-.5v-10.5a1.37.15-89.2 0 0-.11-1.18q-2.5-3.38-6.79-1.61a.88.37-19.1 0 0-.6.54Zm27.04 9.79c-2.45-9.15.56-16.18 11.47-13.29q2.26.6 2.83 2.87c1.85 7.31-5.83 6.78-10.42 6.96a.61.61 3.9 0 0-.59.51c-.7 4.52 5.19 4.39 7.54 2.49a.85.54-41.1 0 1 .94-.14l1.8 1.71a.73.48-35.9 0 1-.34.91q-5.08 3.04-10.7.86-1.96-.76-2.53-2.88Zm3.51-9.25q-.4 1.23-.29 2.46a.52.48 86.9 0 0 .49.48l5.51-.17a.97.93 13.8 0 0 .78-.45q2.24-3.68-3.56-3.93-2.36-.11-2.93 1.61Z"/><path fill="#1078bd" d="M381.46 38.5q1.16 5.36-.03 10.77a1.71 1.48 77.8 0 1-.46.84l-18.03 16.81q-.44-1.36-1.34-1.87a1.71.58 21.4 0 1-.76-.64l-1.91-3.35a1.36 1.02 77.2 0 0-.73-.62l-.66-.19-1.33-3.5q1.19-4.82 3.67-9.21a1.64 1.21-80.1 0 1 .69-.66l9.73-4.25 11.16-4.13Z"/><path fill="#fff" d="M510.3 42.04q.57-1.72 2.93-1.61 5.8.25 3.56 3.93a.97.93 13.8 0 1-.78.45l-5.51.17a.52.48 86.9 0 1-.49-.48q-.11-1.23.29-2.46Z"/><path fill="#938f8f" d="m341.75 42.54.25.67-1.75.25q.53-.9 1.5-.92Z"/><path fill="#f58c25" d="M342 43.21c4.34.57 9.45 2.25 11.28 6.65q1.44 3.46 2.93 6.89l1.33 3.5 2.75 5.75q-4.54 1.44-10.73.44a4.74 4.71-18.9 0 1-2.41-1.17q-7.79-7.13-15.86-14.56-1.43-1.31-1-3.46c3.52-2.86 6.25-2.58 9.96-3.79l1.75-.25Z"/><path fill="#fff" d="M431.44 48.93a1.6 1.02-82.1 0 1 1.05-1.23l5.51-.41a.72.69 87.8 0 1 .75.72v3.24a.65.47-5.3 0 1-.56.49c-2.55.38-7.64 1.1-6.75-2.81Z"/><path d="m357.54 60.25.66.19a1.36 1.02 77.2 0 1 .73.62l1.91 3.35a1.71.58 21.4 0 0 .76.64q.9.51 1.34 1.87-1.66-.21-2.65-.92l-2.75-5.75Z"/><path fill="#0358a2" d="M224.01 206.74c31.31 13.59 67.04 18.33 100.93 17.82q.51-.01.02.06c-44.31 6.57-112.58.28-144.51-36.31-8.77-10.05-13.09-24.39-8.92-37.26 6.36-19.63 27.68-33.73 46.92-41.13 33.43-12.86 69.92-15.75 105.31-11.2a1.26.81-4.6 0 1 .84.45c.47.77-1.14 1.15-1.7 1.13q-35.66-.95-70.96 7.88c-23.06 5.77-61.61 20.81-67.99 46.98-6.1 25.08 20.84 43.23 40.06 51.58Z"/><path fill="#af5188" d="M284 130.04q-.69.87-.82 1.98a1.4 1.04 36.5 0 0 .27.88q1.7 2.28.11 3.81c-3.04 2.93-7 6.49-11.07 7.8q-3.71 1.2-16.08 6.7-1.04.9-2.41 1.02a1.45.65 4 0 0-.89.33q-.53.57-.11 1.4-9.65 2.21-19.5 3.33-2.62.7-2.75-1.25 17.44-3.12 33.63-10.23c2.57-1.13 24.48-11.44 14.6-16.42q-.58-.29.04-.19l4.98.84Z"/><path fill="#f14f86" d="m284 130.04 1.75.5-.14.48a.65.5 18.6 0 0 .44.65c3.22 1.2 2.46 4.51.45 6.43-7.57 7.25-20.07 11.53-30.09 13.11q12.37-5.5 16.08-6.7c4.07-1.31 8.03-4.87 11.07-7.8q1.59-1.53-.11-3.81a1.4 1.04 36.5 0 1-.27-.88q.13-1.11.82-1.98Z"/><path fill="#e93227" d="m285.75 130.54 2.5.75c3.78 1.35 4.95 4.58 2.41 7.76-4.12 5.14-12.58 7.6-19.37 9.9q-9 3.05-18.29 5.01-.42-.83.11-1.4a1.45.65 4 0 1 .89-.33q1.37-.12 2.41-1.02c10.02-1.58 22.52-5.86 30.09-13.11 2.01-1.92 2.77-5.23-.45-6.43a.65.5 18.6 0 1-.44-.65l.14-.48Z"/><path fill="#f99247" d="M288.25 131.29q3.96.36 7.5 2.25l-.46.71c1.21 5.02-2.36 9.02-6.64 10.63-5.48 2.07-8.41 4.67-14.89 5.16q-2.32.18-.56 1.7.35.3 2.3.47l-15.5 3.5q-13.18 1.84-26.5 2v-.42q9.85-1.12 19.5-3.33 9.29-1.96 18.29-5.01c6.79-2.3 15.25-4.76 19.37-9.9 2.54-3.18 1.37-6.41-2.41-7.76Z"/><path fill="#21a376" d="M295.75 133.54q4.01 1.32 7.1 3.67l.72 3.73a1.64 1.59 51.8 0 1-.1.96c-4.05 9.31-33.32 14.4-43.47 13.81l15.5-3.5c5.27-1.19 23.12-6.36 24.03-12.75q.59-4.19-4.24-5.21l.46-.71Z"/><path fill="#f0bf50" d="M295.29 134.25q4.83 1.02 4.24 5.21c-.91 6.39-18.76 11.56-24.03 12.75q-1.95-.17-2.3-.47-1.76-1.52.56-1.7c6.48-.49 9.41-3.09 14.89-5.16 4.28-1.61 7.85-5.61 6.64-10.63Z"/><path fill="#045a87" d="M302.85 137.21q5.16 2.78 3.78 7.14c-4.35 13.68-64.61 15.02-76.65 14.61q1.34-1.51 3.52-1.25 13.32-.16 26.5-2c10.15.59 39.42-4.5 43.47-13.81a1.64 1.59 51.8 0 0 .1-.96l-.72-3.73Z"/><path fill="#938f8f" d="M230.75 156.04q.13 1.95 2.75 1.25v.42q-2.18-.26-3.52 1.25-9.19.07-13.41-.82c-1.27-.27-.16-.84.28-.85q6.98-.15 13.9-1.25Z"/><path fill="#292728" d="M235.22 182.28q.24-1.43-.72-1.07l1.75-.92q1.21.33 1.23-.73a.48.44 84.5 0 0-.54-.49q-.62.15-1.3.95 0-1.43 1.05-2.59.4-.44-.05-.46l-.39-.01-.5-.75c5.06-12.9-10.95-12.22-19.45-11.96a.53.5-1.1 0 1-.55-.5v-2a.56.49-.6 0 1 .55-.49c6.38-.07 13.91-.31 19.89 2.17 10.56 4.37 10.33 14.28-.97 18.85Z"/><path d="M298.04 179q-.27-1.17-1.25-1.5l-3.01-6.88a.79.43 71.6 0 0-.53-.49l-12.76.09a.84.72 89.6 0 0-.72.85l.16 9.18a.72.4-89 0 1-.43.75q-.2-.02-.31-.19a.75.69-52.6 0 1-.06-.66q.28-.71-.17-1.4l-.1-6.31a.82.74 12.3 0 0-.51-.71q-3.65-1.53-5.81 1.77l-.49-11.2a.48.44 88.2 0 1 .44-.51l6.76.01a.61.44.4 0 1 .61.45l-.12 6.08a.45.32-89.8 0 0 .33.46l18.44-.44a.72.56 76.7 0 1 .57.46c.39 1.03 5.43 12.48 4.46 12.54a1.01.53 69.7 0 1-.71-.64l-4.93-10.66q-.3-.63-.34-.05-.05.63.28 1.69 1.09 3.42 2.66 6.67a.33.33-15.3 0 1-.27.47l-2.19.17Zm-1.46-8.11c-2.66-2.29-.84 1.59.05.51a.36.36 39.3 0 0-.05-.51Z"/><path fill="#292728" d="M254.54 171.25q-.17.57-.01 1.08a.67.57-11.2 0 0 .7.39c2.09-.26 9.19-.72 7.06 3.78q-.33-2.39-2.36-2.37-7.01.09-9.26-.28c-8.23-1.36-7.33-11.72.84-11.62q9.09.1 18.19-.06a.79.35-1.2 0 1 .8.34v1.23a.75.36-.6 0 1-.74.37l-14.26.22a1.32 1.01 16.4 0 0-.84.32q-2.92 2.97-.12 6.6Z"/><path d="M312.99 167.6a1.36 1.12-21 0 1 1.83.61q.49 1.97-1.58 1.23a1.28.51 13.5 0 1-.79-.56q-.31-.86.54-1.28Zm-8.66 14.32c.24-.76 4.44-14.38 6.22-13.63a.58.49-67.3 0 1 .23.72l-5.83 13.93a1.46 1.38-69.9 0 1-1.71.85q-1.86-.58-3.75-.09a1.1 1.06-33.1 0 1-.92-.18c-2.31-1.75 4.99-1.09 5.11-1.09a.73.73-83 0 0 .65-.51Z"/><path fill="#4c4a49" d="M217.5 169.04q-1 4.95-.68 9.93-.44 1.56.04 3.01a.7.67-10.1 0 0 .68.45c4.94-.18 11.24.65 16.96-1.22q.96-.36.72 1.07c-7 1.51-12.07 1.01-18.13 1.35a1.61 1.35 88.9 0 1-1.42-1.63l.05-12.94a.43.31-84.2 0 1 .4-.45l1.38.43Z"/><path fill="#938f8f" d="m223.75 179.96-1 .33q-3.45 1.09-5.93-1.32-.32-4.98.68-9.93c1.21-.3 4.98.15 5.57-.19a.29.23-19 0 1 .42.15l.24 9.25a1.61.83-42.6 0 1-.31.85q-.32.45.33.86Z"/><path fill="#4c4a49" d="M296.58 170.89a.36.36 39.1 0 1 .05.51c-.89 1.08-2.71-2.8-.05-.51Z"/><path fill="#938f8f" d="M254.54 171.25c3.51.15 9.54-.42 12.45 1.09 2.27 1.18 5.28 4.12 3.51 6.95l-1 .5q-3.91 1.11-7.77.48.77-2.11.56-3.77c2.13-4.5-4.97-4.04-7.06-3.78a.67.57-11.2 0 1-.7-.39q-.16-.51.01-1.08Zm24.42 7.5q-1.14.37-1 1.57a.45.38 87.8 0 1-.39.5l-4.36-.32q-.5-1.26-.33-2.59a.63.39-77.3 0 0-.2-.59q-.17-.09-.39-.07l.25-3.75q2.16-3.3 5.81-1.77a.82.74 12.3 0 1 .51.71l.1 6.31Z"/><path fill="#4c4a49" d="m235.75 176.21.5.75q-2.91 4.04-9.09 3.91-1.47-.04-2.9.28-.66.15-1.51-.86l1-.33c4.34-.27 9.02.04 12-3.75Z"/><path fill="#fff" d="m236.25 176.96.39.01q.45.02.05.46-1.05 1.16-1.05 2.59l.61.27-1.75.92c-5.72 1.87-12.02 1.04-16.96 1.22a.7.67-10.1 0 1-.68-.45q-.48-1.45-.04-3.01 2.48 2.41 5.93 1.32.85 1.01 1.51.86 1.43-.32 2.9-.28 6.18.13 9.09-3.91Z"/><path d="M272.29 177.25q.22-.02.39.07a.63.39-77.3 0 1 .2.59q-.17 1.33.33 2.59 1 2.15 2.79 2.08c4.7-.18 15.47.49 17.84-.91q.67-.4.67.08l-.01 1.26a.74.5 0 0 1-.74.5q-7.84-.03-15.65 0c-4.35.02-6.82-1.55-5.82-6.26Z"/><path fill="#938f8f" d="M296.79 177.5q.98.33 1.25 1.5.2 1.06 1.45.65a1.83.91-31.8 0 1 .96-.09c2.52.67-.41 2.25-1.64 1.08q-.58-.56-.65.04l-.07.63q-.11 1.03-.37-.04l-.93-3.77Z"/><path fill="#e4e3e2" d="m236.25 180.29-.61-.27q.68-.8 1.3-.95a.48.44 84.5 0 1 .54.49q-.02 1.06-1.23.73Z"/><path d="M270.5 179.29q-1.36 4.14-4.82 4.17-10.07.08-20.2.03a.74.73-.8 0 1-.74-.71q-.09-3.41.95-.72a.99.7 80.7 0 0 .58.59q.48.11.98-.19l18.69-.02q2.06-.01 3.56-2.65l1-.5Z"/><path fill="#e4e3e2" d="M269.5 179.79q-1.5 2.64-3.56 2.65l-18.69.02q.36-.64.11-1.35a.34.32 79.4 0 1 .29-.45l14.08-.39q3.86.63 7.77-.48Z"/><path d="M288.79 189.55c3.3-.74 3.23 2.31 3.37 4.43a.67.34-88.5 0 1-.42.77l-.17-.06a.84.47-87.2 0 1-.34-.69l-.13-2.32a1.09 1-78.2 0 0-.5-.84c-3.71-2.12-1.42 5.33-2.92 3.59a1.56.82-77.8 0 1-.26-.93l-.05-5.01a1.04.67 79.5 0 1 .34-.82q1.05-.65.69 1.54a.32.31-2.7 0 0 .39.34Zm-33.95 4.36a1 .91 64.8 0 0 1.34.55c2.36-1.37-1.59-1.64-2.3-3.49a.77.76-31.7 0 1 .2-.83q1.89-1.71 3.39 0 .63.72-.29.44-1.88-.56-2.24.04a.68.55 27.4 0 0 .37.84l2.53 1.18a.71.51-64.8 0 1 .16.85q-1.39 3.05-4.03.82-.84-.71-.05-.9.66-.17.92.5Zm28.98.27q.89.28 1.36-.5a.82.75-68.5 0 1 .8-.39c.82.15-1.07 2.61-2.73 1.51-1.98-1.31-1.6-4.27.57-5.32a1.27 1.18-47 0 1 .98-.07q1.15.41 1.22 1.58.05.7-.46.2l-.88-.88a.62.62-44.3 0 0-.87-.01q-1.37 1.34-.74 3.14a1.22 1.18 88.6 0 0 .75.74Z"/><path d="M261.268 195.248a2.92 2.46 92.2 0 1-2.346-3.012 2.92 2.46 92.2 0 1 2.57-2.824 2.92 2.46 92.2 0 1 2.346 3.012 2.92 2.46 92.2 0 1-2.57 2.824Zm.252-.826a2.11 1.62 85.1 0 0 1.434-2.24 2.11 1.62 85.1 0 0-1.794-1.964 2.11 1.62 85.1 0 0-1.434 2.24 2.11 1.62 85.1 0 0 1.794 1.964Zm8.21-4.052c-1.91-.53-1.46 2.95-1.5 3.88q-.05 1-.42.69-.28-.24-.41-.64-.93-2.99-.17-3.74 1.75-1.73 3.71-.51a.76.44 31.5 0 0 .88.02q.49-.76 1.43-.56a1.2.38 8.3 0 1 .86.42q1.03 2.01.58 4.32a.44.37-71.1 0 1-.56.34q-.28-.17-.42-.58a1.48.71 61.4 0 1-.05-1q1.07-2.25-1.18-2.7a.63.61-76.4 0 0-.7.44q-.43 1.45-.22 2.94a1.14.31 78.1 0 1-.05.91q-.18.22-.44.13a.63.4-89.2 0 1-.3-.48l-.42-3.32a.89.57 9.6 0 0-.62-.56Zm6.47.54q.2-1.79.82-1.12a1.11.75-65.3 0 1 .15.9c-.25 1.07-.24 2.5.67 3.25 2.31 1.9 1.87-3.14 2.06-3.9a.37.34-66.2 0 1 .53-.23q.61.43.13 1.01a1.24.41 77.2 0 0-.09.94l.3 2.23a.7.55-13.8 0 1-.5.64q-4.65 1.51-4.07-3.72Zm24.73-.26a.98.97 78.9 0 0-.57.86q-.1 3.3-.89 3.18a.72.55-86.9 0 1-.47-.69v-2.5a.75.5 90 0 0-.5-.75h-1.25a.75.5-90 0 0-.5.75v2.5a.78.59 86.7 0 1-.5.75q-.23.04-.43-.06a.85.56-81.2 0 1-.32-.69v-3.75a.57.5-3.9 0 1 .5-.5l2.49-.28a.98.8 68 0 1 .84.46q.67 1.07 1.34 0a1.19.96 9.6 0 1 .82-.46c2.57-.27 1.93 2.93 2.16 4.42a.71.57 77.3 0 1-.36.73c-1.9.69.51-5.25-2.36-3.97Z"/><path d="M307.265 195.14a2.87 2.55 89.9 0 1-2.555-2.865 2.87 2.55 89.9 0 1 2.545-2.875 2.87 2.55 89.9 0 1 2.555 2.865 2.87 2.55 89.9 0 1-2.545 2.875Zm-.008-1.14a1.77 1.43 90.1 0 0 1.433-1.768 1.77 1.43 90.1 0 0-1.427-1.772 1.77 1.43 90.1 0 0-1.433 1.767 1.77 1.43 90.1 0 0 1.427 1.773Z"/><path d="M312.45 191.55c-.07.39-.09 3.95-.94 3.35a1.21 1 20.4 0 1-.52-.9l.01-3.5a.79.76-1.2 0 1 .76-.76l1.68-.07q.97-.04.57.6-.33.54-1.02.72a.76.67-4.6 0 0-.54.56Z"/><path d="M317.314 195.14a2.84 2.43 88.7 0 1-2.493-2.785 2.84 2.43 88.7 0 1 2.365-2.894 2.84 2.43 88.7 0 1 2.493 2.784 2.84 2.43 88.7 0 1-2.365 2.894Zm.436-2.89v.25a.36.22 4.5 0 1-.4.2c-2.44-.35-.4 2.7 1.06 1.1a.82.62-41.3 0 0 .18-.87q-.49-.77-.33-1.68a.72.6 14.4 0 0-.52-.72q-1.31-.39-1.51.7a.82.17 40.5 0 0 .45.58q.35.3.82.18a.25.2 84.7 0 1 .25.26Z"/><ellipse fill="#fff" rx="2.11" ry="1.62" transform="rotate(85.1 25.913 238.512)"/><ellipse fill="#fff" rx="1.77" ry="1.43" transform="rotate(90.1 57.683 249.477)"/><path fill="#fff" d="M317.5 191.99q-.47.12-.82-.18a.82.17 40.5 0 1-.45-.58q.2-1.09 1.51-.7a.72.6 14.4 0 1 .52.72q-.16.91.33 1.68a.82.62-41.3 0 1-.18.87c-1.46 1.6-3.5-1.45-1.06-1.1a.36.22 4.5 0 0 .4-.2v-.25a.25.2 84.7 0 0-.25-.26Z"/><ellipse fill="#db3927" rx="12.46" ry="10.8" transform="rotate(.7 -17669.432 32460.395)"/><circle cx="130.31" cy="234.26" r="8.35" fill="#e93227"/><path fill="#db3927" d="m375.94 239.62-22.35-11.47q-1.31-.67.22-.44l45.76 6.96q.63.09.1.49l-46.23 34.03q-.99.74-.22-.23l22.9-28.57a.52.5 32.8 0 0-.18-.77Z"/><path fill="#062e59" d="M353.86 263.34c3.43-7.01 6.66-14.08 9.99-21.16a.83.78 37.3 0 0-.15-.88l-9.28-10.23q-.99-1.09.38-.36l17.79 9.42a.56.48-55.3 0 1 .09.8l-18.37 22.63a.57.46 11.7 0 1-.33.17q-.34.05-.12-.39Z"/><path fill="#094074" d="M130.66 247.52c2.05.2 7.71-3.23 9.73-4.31.66-.35 1.85-.2 1.19.86q-4.3 6.9-9.96 11.11-1.85 1.37-3.51-.21-10.28-9.77-16.57-22.03-.39-.77.26-.95a1.07.9 56.1 0 1 .94.27l14.41 13.58q1.59 1.49 3.51 1.68ZM28.53 244.4c-8.3.88-9.21 11.68-10.42 18.42q-.73 4.06 2.3 6.4a.77.43 36.5 0 1 .35.78l-2.31 3.44a.79.64 27.8 0 1-.92.18c-7.58-3.49-4.22-15.12-2.09-21.95 2.65-8.51 10.62-14.67 19.28-11.23 8.07 3.19 4.57 14.03 2.53 21.32q-2.14 7.67-8.05 11.09a.86.36-29.3 0 1-.93.11l-1.75-3.22a.74.44-28.3 0 1 .44-.74c5.1-2.79 5.74-9.38 6.91-14.47 1.08-4.66 1.3-10.84-5.34-10.13Zm40.75-.33c1.34-.6 1.98-.09 3.25-.06a.55.54-2.4 0 1 .53.48q.57 5.04-4.22 3.92a.7.28 12.4 0 1-.61-.41l.53-3.25a.91.87 83.6 0 1 .52-.68Zm30.95 20.45q-4.67 2.53-4.65 7.94a1.05.35 87.9 0 1-.28.94q-1.82.65-3.8.29a.57.55-78.7 0 1-.44-.68l6.53-28.44a.76.66-82.3 0 1 .66-.58H101a.81.74-82.6 0 1 .7 1l-3.86 16.28q-.29 1.22.58.41 4.14-3.93 8.32-7.8c1.5-1.39 3.09-1.54 4.97-1.4q1.64.12.32 1.31l-7.74 7.01a.98.48 63.8 0 0 0 .93l4.62 11.34a.5.46 77.8 0 1-.41.69l-4-.01a1.11.65 74.8 0 1-.76-.75l-2.98-8a.61.29 67.9 0 0-.53-.48Zm78.96 8.54q-2.29-1.58-1.63-4.56 2.56-11.74 5.26-23.55a1.06.31-78 0 1 .49-.91l3.45-.04a.65.35-80.8 0 1 .26.76q-2.46 11.22-5.02 22.39c-.5 2.16.1 3.55 2.59 3.12a.55.48-6.1 0 1 .64.45q.01 1.88-1.18 3.01-1.65 1.56-4.86-.67Zm11.7.07q-2.51-1.14-1.88-3.88l5.59-24.43a.99.88 88.7 0 1 .6-.71q4.27-1.41 3.24 2.34c-1.91 6.96-3.35 14.36-5.02 21.73a1.63 1.58 7.1 0 0 1.55 1.92q3.46.14 1.14 3.35a1.03.12-9.2 0 1-.87.25q-2.25.38-4.35-.57Z"/><ellipse fill="#0a264b" rx="1.77" ry="1.5" transform="rotate(-13 1328.279 -1990.55)"/><path fill="#0a264b" d="M517.82 267.17q.71.25 1.38.63 1.79 1-.27.68-3.34-.53-6.68.01-.85.14-.12-.4l1.63-1.22a1.25 1.2-16.2 0 0 .5-.87l1.71-16.25a.95.64-77.5 0 0-.33-.85l-1.49-.82q-.64-.35-.08-.51l4.68-1.35a.47.41 86.9 0 1 .51.53l-.94 8.5q-.07.7.53.42c2.64-1.22 7.03-4.01 8.53.18.85 2.37-.17 7.2-.4 10.16a1.09.59-80.5 0 0 .32.94l1.45.8a.62.24 27.4 0 1 .42.48c-.02.06-6.33.1-7.18.24q-.56.09-.47-.28a.69.45-7.9 0 1 .46-.4c3.07-.9 2.75-8.45 2.71-9.98q-.08-2.53-3.74-2.1-2.59.3-2.8 2.22l-.93 8.56a.84.56 14.8 0 0 .6.68Z"/><path fill="#094074" d="m151.15 256.43-2.68 12.06a1.02.87-67.5 0 0 .32 1q1.07.75 2.47.74a.55.49 88.1 0 1 .49.52q.07 1.33-.43 2.57a.99.48-2.4 0 1-.75.4c-10.66 1.62-4.66-12.43-3.63-17a.61.49-81.6 0 0-.43-.73l-1.18-.06a.71.49 88.4 0 1-.48-.66q-.2-2.97 2.6-2.79a.6.5-81.1 0 0 .54-.48l1.09-4.93a.73.63-81.8 0 1 .67-.58l3.24.21a.51.41-80.1 0 1 .35.62l-1.09 4.42a.76.68-87.3 0 0 .77.94q4.68-.93 1.98 3.09a.91.6 13.4 0 1-.75.27l-2.56-.19a.72.46-79.6 0 0-.54.58Z"/><path fill="#0a264b" d="m398.69 255.33-1.53-.21q-.57-.09-.09-.45c1.33-.97 3.13-2.12 4.03-3.5q2.78-4.22 1.27 1.62a.82.81-80.4 0 0 .72 1.02q3.23.28 2.79 1.1a1.09.54 5.9 0 1-.88.33l-2.49.01a.81.44-85.9 0 0-.48.75l-.81 9.74a.94.91 82.1 0 0 1.24.97l2.18-.85q.46-.18.25.23-1.44 2.83-4.43 2.38c-3.81-.57-1.61-9.95-1.33-12.66a.51.42 7.6 0 0-.44-.48Zm90.98 12.98q-2.1-.46-1.87-2.57l1.08-9.76a.55.51 9.9 0 0-.43-.56l-1.53-.35q-.85-.19-.14-.58 3.11-1.69 4.96-4.72.44-.71.58.16.24 1.55-.24 2.96a.82.33-73.2 0 0 .09.97l2.33.12a.98.03 3.1 0 1 .93.08q.62.44 0 .87a1.73 1.47-58.8 0 1-.93.31l-2.24.01a.73.42-85.4 0 0-.45.66c-.2 1.79-1.49 9.13-.59 10.28.98 1.28 4.4-1.63 3.17.21q-1.72 2.56-4.72 1.91Z"/><path fill="#094074" d="M160.43 265.04c-1.48 5.8 5.36 6.45 8.67 3.73a1.13.53-44.3 0 1 .93-.32q1.33.59 1.73 2.05a.91.74-28.2 0 1-.36.86c-5.32 4.08-15.84 4.3-15.12-5.11 1.41-18.6 23.98-17.32 17.72-2.3a.9.77-77 0 1-.75.55H161a.7.55-81.7 0 0-.57.54Zm10.19-4.44c.55-7.37-7.56-5-9.19.36a.42.36-80 0 0 .32.54l7.99-.01a.97.88-87.5 0 0 .88-.89Zm-109.38-5.92c-1.78 5.95-2.88 12.24-4.34 18.29a.9.57-87.2 0 1-.43.61q-2.43.97-3.67-.85a.62.46 56.8 0 0-.7-.26c-3.35 1.97-8.88 2.57-10.42-1.55-1.36-3.61 1.88-13.8 2.86-17.75a.88.69-81.1 0 1 .71-.67h2.99a.66.48-82.5 0 1 .43.78q-1.34 6.3-2.77 12.5c-1.45 6.25 6.72 5.13 8.13.97q.84-2.48 3.18-13.43a.88.86-3.6 0 1 .58-.65q4.48-1.45 3.45 2.01Z"/><rect width="4.08" height="21.9" x="-2.04" y="-10.95" fill="#094074" rx=".27" transform="rotate(12.9 -1130.389 427.143)"/><path fill="#094074" d="M89.56 253.54q2.61 1.01.69 2.63l-1.8 1.51a.66.58 44.4 0 1-.81-.04c-6.72-5.74-11.3 5.02-10.04 10.63a1.47 1.43-78.8 0 0 .56.86q3.41 2.46 6.63-.38a.79.43-40.5 0 1 .9-.19l1.8 2.19a.76.46-37.7 0 1-.33.85c-6.28 4.64-15.52 2.85-13.98-6.92 1.33-8.48 7.25-14.7 16.38-11.14Zm114.89 11.51c-1.21 6.05 5.61 6.52 8.96 3.56a.78.6-46 0 1 .86-.13q1.02.77 1.56 1.95a.91.6-33.3 0 1-.39.9c-3.51 2.6-10 4.24-13.44.71-2.9-2.97-1.72-7.84-.49-11.52 3.94-11.82 22.25-10.53 16.46 3.53a.8.73 10.5 0 1-.72.45H205a.68.53-83 0 0-.55.55Zm8.92-8.41q-1.71-1.6-4.06-.33-2.75 1.48-3.87 4.37a.61.43-75.7 0 0 .31.81l7.93-.04a1.07 1.05 2.7 0 0 1.05-.94q.25-2.36-1.36-3.87Zm16.43-2.57q4.53-3.02 9.28-.44a.49.44 37.4 0 1 .14.74l-2.89 2.69a.82.63 34.6 0 1-.85.04c-8.6-4.28-9.56 10.94-10.7 15.78a.91.33-78.1 0 1-.46.75l-3.32.1a.59.49-83.1 0 1-.46-.72l4.5-19.7a.96.16-25.1 0 1 .7-.48q2.42-1.21 3.56.84a.57.24 61 0 0 .5.4Z"/><path fill="#0a264b" d="M384.26 255.96c1.5-.81 2.78-2.05 4.47-2.2 6.91-.62 3.94 8.83 3.76 12.51a1.01.49-83.6 0 0 .32.92l1.26.48a.91.27 16.8 0 1 .6.4c.1.28-.35.43-.62.39-1.11-.18-6.91.08-7.15-.08q-.43-.29.14-.42c3.5-.78 3.06-7.18 3.24-9.97q.24-3.68-2.51-2.49l-3.69 1.59a1.21.78 87.6 0 0-.54.92l-.85 8.24a1.07 1.01 24.3 0 0 .36.88c.2.18 3.51 1.14 1.39 1.08q-3.27-.09-6.56.1-1.07.06-.22-.41l1.27-.72a1.22.83-15.1 0 0 .58-.68q1.05-4.94 1-10a.63.49 4.9 0 0-.53-.49q-.63-.1-1.14-.43-.54-.36.17-.59l3.73-1.24a.79.73-24.2 0 1 .9.3q.44.73.29 1.65-.08.47.33.26Zm25.96 3.8c-2.32 5.4 5.93 8.94 10.05 3.6q.31-.4.18.08-1.24 4.62-5.89 5.2c-10.31 1.28-9.8-14.85 1.32-14.86 3.17-.01 5.4 1.87 5.28 5.07a.61.61-89.5 0 1-.6.59l-9.56.06a.91.35 2.4 0 0-.78.26Zm7.23-1.75c1.34-3.75-4.85-3.98-7.02-.59q-.7 1.09.57 1.09l5.75-.01a.75.74-79.9 0 0 .7-.49ZM429 255.7q1.23-.67 2.37-1.41c4.4-2.86 4.67 4.18 1.15 2.15-4.74-2.74-4.92 7.14-4.75 10a.89.82 10.3 0 0 .55.73l1.43.57a.43.31 29.4 0 1 .26.56q-.2.2-.58.17c-1.43-.13-7.52-.16-7.56-.23a.21.17-27.3 0 1 .12-.26l2.22-1.01a1.13.49-89.4 0 0 .4-.9l.92-9.32a.64.54 11.9 0 0-.46-.59l-1.5-.46q-1.01-.31.19-.67l4.47-1.34a.46.43 89.1 0 1 .53.56l-.29 1.23q-.14.59.53.22Zm16.52-1.7.71-.17a.42.41-2.1 0 1 .51.46l-.63 4.04q-.1.67-.26-.02c-1.22-5.21-7.95-3.92-7.12-1.16.63 2.12 5.66 2.99 7.23 4.73 3.41 3.79-2.52 7.4-5.71 6.91q-3.09-.46-4.3-.53a.5.44 5.4 0 1-.48-.51l.58-4.05q.08-.58.28-.01 1.96 5.74 7.2 3.17a1.23 1.05-8.4 0 0 .61-.7c.75-2.54-4.01-4.33-5.99-5.22a1.73 1.44.2 0 1-.73-.61c-3.16-5.05 3.02-7.48 7.16-6.29q.33.09.94-.04Zm32.88 1.84-1.14-.34q-.83-.24-.01-.47l4.97-1.35a.49.38 88.5 0 1 .46.56l-1.25 12a.94.92-69 0 0 .36.83c.38.28 2.11.72 1.84 1.23a.63.55 18 0 1-.64.27q-3.37-.55-6.73-.02-.77.13-.33-.51.26-.37 1.04-.51a1.54 1.53-88.3 0 0 1.24-1.17q1.19-5.01.77-9.81a.81.8 6.4 0 0-.58-.71Zm20.98 11.95q-1.89-.72-2.38-3.29c-1.38-7.29 5.26-13.42 12.05-9.83q2.64 1.4 1.42 2.73c-3.82 4.16-2.46-4.45-7.11-2.47-8.93 3.81.14 18.07 6.45 8.02q.23-.37.41-.04a.63.61 43.9 0 1 .02.54q-3.33 7.19-10.86 4.34Zm-37.39-7.55-5.18 8.07q-.7 1.09-1.14-.24l-3.82-11.64a2.1 1.2 24.4 0 0-.6-.83l-1.37-1.18q-.77-.68.13-.49 2.87.58 5.72 0 .66-.13.15.49l-.95 1.18a.98.91 56.6 0 0-.15.9l2.31 7.19q.45 1.4 1.25.14l3.08-4.9a1.56.89-45 0 0 .26-.95q-.39-2.23-2.28-3.53-.39-.27.07-.27 3.29-.05 6.51.08.76.03.27.37a.83.58 21.7 0 1-.48.11c-3.26-.27.62 8.03 1.1 9.34q.23.65.54.09l4.22-7.76a1.24.79-50.6 0 0 .12-.99q-.3-.63-1.02-1.03-.75-.4.02-.4h3.99q.8 0 .14.62l-1.08 1.02q-.56.54-.69.76l-6.83 12.13q-.59 1.04-.96-.09l-2.67-8.1q-.24-.74-.66-.09Z"/><path fill="#fff" d="M410.43 257.42c2.17-3.39 8.36-3.16 7.02.59a.75.74-79.9 0 1-.7.49l-5.75.01q-1.27 0-.57-1.09Zm-249 3.54c1.63-5.36 9.74-7.73 9.19-.36a.97.88-87.5 0 1-.88.89l-7.99.01a.42.36-80 0 1-.32-.54Zm51.94-4.32q1.61 1.51 1.36 3.87a1.07 1.05 2.7 0 1-1.05.94l-7.93.04a.61.43-75.7 0 1-.31-.81q1.12-2.89 3.87-4.37 2.35-1.27 4.06.33Z"/><path fill="#e93227" d="M129.82 275.41q-1.22-1.11-3.05-.18c-8.79 4.45-16.48 15.85-22.35 23.63-1.78 2.36-1.95.05-1.32-1.59q7.13-18.72 19.14-34.78 2.25-3.01 5.39-5.31 2.23-1.64 3.88.58c5.08 6.85 7.84 22.1 9.19 30.5q.3 1.87-1.07 1.03a1.84.86 78.3 0 1-.61-.82q-3.15-7.54-9.2-13.06Z"/><path fill="#094074" d="M28.48 281.87c-1.47-1.86-3.93-6.56-6.89-3.29-.89.99-7.8 10.39-7.91 10.31a.89.55-66.7 0 1-.13-.87q3.06-9.5 8.82-17.63 1.58-2.22 2.8.18 2.68 5.23 4.04 10.94.44 1.84-.73.36Z"/></svg>