<?xml version="1.0" encoding="utf-8"?>
<!-- Generator: Adobe Illustrator 23.0.1, SVG Export Plug-In . SVG Version: 6.00 Build 0)  -->
<svg version="1.1" id="Layer_1" xmlns="http://www.w3.org/2000/svg" xmlns:xlink="http://www.w3.org/1999/xlink" x="0px" y="0px"
	 viewBox="0 0 1000 1000" style="enable-background:new 0 0 1000 1000;" xml:space="preserve">
<style type="text/css">
	.st0{fill:#0095DA;}
</style>
<g id="g825">
	<g>
		<g id="g827">
			<g id="g833" transform="translate(496.875,438.4688)">
				<path id="path835" class="st0" d="M500.3,18.6h-21.9c-3.9,0-7.4,3.6-7.5,3.7L388,131.1c-1.6,2-4,2-5.5-0.1L305.8,22.3
					c0-0.1-2.9-3.8-8.3-3.8H150.2c-2.6,0-4.7-2.1-4.6-4.6l0.1-35.9c0-5.2-4.2-9.3-9.3-9.3H-89.3c-34.9,1.2-49.9,4.7-65.9,14
					c-14.7,8.6-22.1,19.6-22.1,32.8c0,14,11.4,27.7,34.2,41.3c5.9,3.5,27,13.7,63.3,30.5c22.8,10.5,35.1,19.2,34.2,27.8
					c-1.4,13.8-13.9,18.5-43.8,18.5h-136.4c-3.3,0-6-0.6-6-3.2c0-1.3,0.8-2.4,2.2-3.3l0,0c30.5-18.4,40.6-43.2,40.6-65.6
					c0-42.1-35.4-92.8-176.2-92.8h-122.5c-5.1,0-9.3,4.2-9.3,9.3v167.1c0,5.1,4.1,9.3,9.3,9.3h122.5c4.7,0,9.2-0.1,13.6-0.2h306.3
					c28,0,49.8-4.6,65.6-13.8c14.6-8.6,21.9-19.4,21.9-32.7C42.2,93.8,30.8,80,8,66.5c-5.8-3.5-26.9-13.8-63.3-30.6
					c-22.8-10.5-34.2-19.1-34.2-25.6c0-14,14.8-20.7,44.3-20.7H58.3c2.6,0,4.6,2.1,4.7,4.6l-0.1,121.3c0,17.8,11.8,38.8,47.4,38.8
					h284.6c6.7,0,10.2-4.4,10.2-4.4l97.5-128.1C502.6,21.7,504.8,18.6,500.3,18.6 M-383.5,134.3h-30.1c-2.6,0-4.7-2.1-4.7-4.6V-6.6
					c0-2.6,2.1-4.6,4.6-4.6h30.2c74.6,0,114.2,30.7,114.2,72.7C-269.4,103.7-309.3,134.3-383.5,134.3 M299.7,134.8H168.2
					c-18.3,0-22.7-5.2-22.7-19.3V42.5c0-2.4,1.9-4.4,4.3-4.6h76.3c2.4,0.2,5.3,1.6,6.8,3.5l68.5,89.9
					C302.9,133.2,302.1,134.8,299.7,134.8"/>
			</g>
		</g>
	</g>
</g>
</svg>
